<svg width="175" height="180" viewBox="0 0 175 180" fill="none" xmlns="http://www.w3.org/2000/svg">
<rect x="2.5" y="2.5" width="45" height="175" rx="12.5" fill="#CBBDA8" stroke="#043B64" stroke-width="5"/>
<mask id="path-2-outside-1_896_108" maskUnits="userSpaceOnUse" x="15" y="65" width="160" height="50" fill="black">
<rect fill="white" x="15" y="65" width="160" height="50"/>
<path d="M170 100C170 105.523 165.523 110 160 110H53.9518C51.7693 110 50 108.231 50 106.048V103.694C50 101.002 46.7273 99.6752 44.8525 101.606V101.606C42.218 104.321 38.5787 106 34.5586 106C30.5384 106 26.8982 104.321 24.2637 101.606C21.6293 98.892 20 95.142 20 91C20 86.858 21.6293 83.108 24.2637 80.3936C26.8982 77.6791 30.5384 76 34.5586 76C38.5787 76 42.218 77.6792 44.8525 80.3936V80.3936C46.7273 82.3248 50 80.9976 50 78.3061V74.5288C50 72.0276 52.0276 70 54.5288 70H160C165.523 70 170 74.4772 170 80V100Z"/>
</mask>
<path d="M170 100C170 105.523 165.523 110 160 110H53.9518C51.7693 110 50 108.231 50 106.048V103.694C50 101.002 46.7273 99.6752 44.8525 101.606V101.606C42.218 104.321 38.5787 106 34.5586 106C30.5384 106 26.8982 104.321 24.2637 101.606C21.6293 98.892 20 95.142 20 91C20 86.858 21.6293 83.108 24.2637 80.3936C26.8982 77.6791 30.5384 76 34.5586 76C38.5787 76 42.218 77.6792 44.8525 80.3936V80.3936C46.7273 82.3248 50 80.9976 50 78.3061V74.5288C50 72.0276 52.0276 70 54.5288 70H160C165.523 70 170 74.4772 170 80V100Z" fill="#CBBDA8"/>
<path d="M34.5586 106L34.5586 111L34.5586 111L34.5586 106ZM24.2637 101.606L20.6756 105.089L20.6757 105.089L24.2637 101.606ZM20 91H15H20ZM24.2637 80.3936L20.6757 76.9112L20.6756 76.9113L24.2637 80.3936ZM34.5586 76L34.5586 71H34.5586V76ZM160 110V105H53.9518V110V115H160V110ZM50 106.048H55V103.694H50H45V106.048H50ZM44.8525 101.606L41.2646 98.1241C39.5163 99.9254 37.1492 101 34.5585 101L34.5586 106L34.5586 111C40.0082 111 44.9197 108.716 48.4405 105.089L44.8525 101.606ZM34.5586 106V101C31.9675 101 29.5997 99.9252 27.8516 98.1241L24.2637 101.606L20.6757 105.089C24.1968 108.717 29.1092 111 34.5586 111V106ZM24.2637 101.606L27.8517 98.1242C26.1012 96.3205 25 93.8112 25 91H20H15C15 96.4728 17.1573 101.463 20.6756 105.089L24.2637 101.606ZM20 91L25 91C25 88.1888 26.1012 85.6795 27.8517 83.8758L24.2637 80.3936L20.6756 76.9113C17.1573 80.5365 15 85.5272 15 91L20 91ZM24.2637 80.3936L27.8516 83.8759C29.5997 82.0748 31.9675 81 34.5586 81V76V71C29.1092 71 24.1968 73.2834 20.6757 76.9112L24.2637 80.3936ZM34.5586 76L34.5585 81C37.1492 81 39.5163 82.0746 41.2646 83.8759L44.8525 80.3936L48.4405 76.9112C44.9197 73.2837 40.0082 71.0001 34.5586 71L34.5586 76ZM50 78.3061H55V74.5288H50H45V78.3061H50ZM54.5288 70V75H160V70V65H54.5288V70ZM170 80H165V100H170H175V80H170ZM50 103.694H55C55 96.5119 46.2673 92.9705 41.2649 98.1238L44.8525 101.606L48.4402 105.089C47.1873 106.38 45 105.493 45 103.694H50ZM160 110V115C168.284 115 175 108.284 175 100H170H165C165 102.761 162.761 105 160 105V110ZM50 74.5288H55C55 74.789 54.789 75 54.5288 75V70V65C49.2662 65 45 69.2662 45 74.5288H50ZM160 70V75C162.761 75 165 77.2386 165 80H170H175C175 71.7157 168.284 65 160 65V70ZM53.9518 110V105C54.5307 105 55 105.469 55 106.048H50H45C45 110.992 49.0078 115 53.9518 115V110ZM44.8525 80.3936L41.2649 83.8762C46.2673 89.0295 55 85.4881 55 78.3061H50H45C45 76.5072 47.1873 75.6202 48.4402 76.9109L44.8525 80.3936Z" fill="#043B64" mask="url(#path-2-outside-1_896_108)"/>
<circle cx="144" cy="87" r="6" fill="#043B64"/>
<rect x="143" y="91" width="2" height="19" fill="#043B64"/>
<circle cx="76" cy="87" r="6" fill="#043B64"/>
<rect x="75" y="91" width="2" height="19" fill="#043B64"/>
<path d="M117.361 97.25C116.615 98.5422 115.542 99.6152 114.25 100.361C112.958 101.107 111.492 101.5 110 101.5C108.508 101.5 107.042 101.107 105.75 100.361C104.458 99.6152 103.385 98.5422 102.639 97.25" stroke="#043B64" stroke-width="3" stroke-linecap="round" stroke-linejoin="round"/>
<mask id="path-9-outside-2_896_108" maskUnits="userSpaceOnUse" x="45" y="0" width="130" height="80" fill="black">
<rect fill="white" x="45" width="130" height="80"/>
<path fill-rule="evenodd" clip-rule="evenodd" d="M170 15C170 9.47715 165.523 5 160 5H60C54.4772 5 50 9.47715 50 15V35C50 40.5228 54.4771 45 60 45H135.306C137.998 45 139.325 48.2727 137.393 50.1472V50.1472C134.679 52.7817 133 56.4214 133 60.4416C133 64.4618 134.679 68.1014 137.393 70.7359C140.108 73.3705 143.858 75 148 75C152.142 75 155.892 73.3705 158.607 70.7359C161.321 68.1014 163 64.4618 163 60.4416C163 56.4214 161.321 52.7817 158.607 50.1472V50.1472C156.675 48.2727 158.002 45 160.694 45H165.183C167.843 45 170 42.8433 170 40.1829V15Z"/>
</mask>
<path fill-rule="evenodd" clip-rule="evenodd" d="M170 15C170 9.47715 165.523 5 160 5H60C54.4772 5 50 9.47715 50 15V35C50 40.5228 54.4771 45 60 45H135.306C137.998 45 139.325 48.2727 137.393 50.1472V50.1472C134.679 52.7817 133 56.4214 133 60.4416C133 64.4618 134.679 68.1014 137.393 70.7359C140.108 73.3705 143.858 75 148 75C152.142 75 155.892 73.3705 158.607 70.7359C161.321 68.1014 163 64.4618 163 60.4416C163 56.4214 161.321 52.7817 158.607 50.1472V50.1472C156.675 48.2727 158.002 45 160.694 45H165.183C167.843 45 170 42.8433 170 40.1829V15Z" fill="#CBBDA8"/>
<path d="M137.393 70.7359L133.911 74.3239L133.911 74.3239L137.393 70.7359ZM158.607 70.7359L162.089 74.3239L162.089 74.3239L158.607 70.7359ZM60 5V10H160V5V0H60V5ZM50 35H55V15H50H45V35H50ZM135.306 45V40H60V45V50H135.306V45ZM133 60.4416H138C138 57.8506 139.075 55.4833 140.876 53.7351L137.393 50.1472L133.911 46.5592C130.283 50.0802 128 54.9921 128 60.4416H133ZM137.393 70.7359L140.876 67.148C139.075 65.3998 138 63.0325 138 60.4416H133H128C128 65.891 130.283 70.8029 133.911 74.3239L137.393 70.7359ZM148 75V70C145.189 70 142.68 68.8987 140.876 67.148L137.393 70.7359L133.911 74.3239C137.536 77.8423 142.527 80 148 80V75ZM158.607 70.7359L155.124 67.148C153.32 68.8987 150.811 70 148 70V75V80C153.473 80 158.464 77.8423 162.089 74.3239L158.607 70.7359ZM163 60.4416H158C158 63.0325 156.925 65.3998 155.124 67.148L158.607 70.7359L162.089 74.3239C165.717 70.8029 168 65.891 168 60.4416H163ZM158.607 50.1472L155.124 53.7351C156.925 55.4833 158 57.8506 158 60.4416H163H168C168 54.9921 165.717 50.0802 162.089 46.5592L158.607 50.1472ZM165.183 45V40H160.694V45V50H165.183V45ZM170 15H165V40.1829H170H175V15H170ZM135.306 45V50C133.507 50 132.62 47.8123 133.911 46.5592L137.393 50.1472L140.876 53.7351C146.03 48.7331 142.488 40 135.306 40V45ZM50 35H45C45 43.2843 51.7157 50 60 50V45V40C57.2386 40 55 37.7614 55 35H50ZM60 5V0C51.7157 0 45 6.71573 45 15H50H55C55 12.2386 57.2386 10 60 10V5ZM158.607 50.1472L162.089 46.5592C163.38 47.8123 162.493 50 160.694 50V45V40C153.512 40 149.97 48.7331 155.124 53.7351L158.607 50.1472ZM165.183 45V50C170.605 50 175 45.6047 175 40.1829H170H165C165 40.0819 165.082 40 165.183 40V45ZM160 5V10C162.761 10 165 12.2386 165 15H170H175C175 6.71573 168.284 0 160 0V5Z" fill="#043B64" mask="url(#path-9-outside-2_896_108)"/>
</svg>
