<svg width="175" height="180" viewBox="0 0 175 180" fill="none" xmlns="http://www.w3.org/2000/svg">
<rect x="2.5" y="2.5" width="45" height="175" rx="12.5" fill="#FF8A18" stroke="#18626F" stroke-width="5"/>
<mask id="path-2-outside-1_854_13" maskUnits="userSpaceOnUse" x="15" y="65" width="160" height="50" fill="black">
<rect fill="white" x="15" y="65" width="160" height="50"/>
<path fill-rule="evenodd" clip-rule="evenodd" d="M170 80C170 74.4772 165.523 70 160 70H54.5286C52.0275 70 50 72.0275 50 74.5286V78.3063C50 80.9977 46.7273 82.3248 44.8528 80.3934C42.2183 77.6789 38.5786 76 34.5584 76C30.5382 76 26.8986 77.6789 24.2641 80.3934C21.6295 83.1079 20 86.8579 20 91C20 95.1421 21.6295 98.8921 24.2641 101.607C26.8986 104.321 30.5382 106 34.5584 106C38.5786 106 42.2183 104.321 44.8528 101.607C46.7273 99.6752 50 101.002 50 103.694V106.048C50 108.231 51.7692 110 53.9516 110H160C165.523 110 170 105.523 170 100V80Z"/>
</mask>
<path fill-rule="evenodd" clip-rule="evenodd" d="M170 80C170 74.4772 165.523 70 160 70H54.5286C52.0275 70 50 72.0275 50 74.5286V78.3063C50 80.9977 46.7273 82.3248 44.8528 80.3934C42.2183 77.6789 38.5786 76 34.5584 76C30.5382 76 26.8986 77.6789 24.2641 80.3934C21.6295 83.1079 20 86.8579 20 91C20 95.1421 21.6295 98.8921 24.2641 101.607C26.8986 104.321 30.5382 106 34.5584 106C38.5786 106 42.2183 104.321 44.8528 101.607C46.7273 99.6752 50 101.002 50 103.694V106.048C50 108.231 51.7692 110 53.9516 110H160C165.523 110 170 105.523 170 100V80Z" fill="#FF8A18"/>
<path d="M24.2641 80.3934L20.6761 76.9111L20.6761 76.9111L24.2641 80.3934ZM24.2641 101.607L20.6761 105.089L20.6761 105.089L24.2641 101.607ZM54.5286 75H160V65H54.5286V75ZM55 78.3063V74.5286H45V78.3063H55ZM34.5584 81C37.1494 81 39.5167 82.0746 41.2649 83.8757L48.4408 76.9111C44.9198 73.2833 40.0079 71 34.5584 71V81ZM27.852 83.8757C29.6002 82.0746 31.9675 81 34.5584 81V71C29.109 71 24.1971 73.2833 20.6761 76.9111L27.852 83.8757ZM25 91C25 88.1889 26.1013 85.6795 27.852 83.8757L20.6761 76.9111C17.1577 80.5362 15 85.5268 15 91H25ZM27.852 98.1243C26.1013 96.3205 25 93.8111 25 91H15C15 96.4732 17.1577 101.464 20.6761 105.089L27.852 98.1243ZM34.5584 101C31.9675 101 29.6002 99.9254 27.852 98.1243L20.6761 105.089C24.1971 108.717 29.109 111 34.5584 111V101ZM41.2649 98.1243C39.5167 99.9254 37.1494 101 34.5584 101V111C40.0079 111 44.9198 108.717 48.4408 105.089L41.2649 98.1243ZM55 106.048V103.694H45V106.048H55ZM160 105H53.9516V115H160V105ZM165 80V100H175V80H165ZM45 78.3063C45 76.5071 47.1877 75.62 48.4408 76.9111L41.2649 83.8757C46.2669 89.0295 55 85.4883 55 78.3063H45ZM54.5286 65C49.2661 65 45 69.2661 45 74.5286H55C55 74.7889 54.7889 75 54.5286 75V65ZM45 106.048C45 110.992 49.0077 115 53.9516 115V105C54.5306 105 55 105.469 55 106.048H45ZM160 115C168.284 115 175 108.284 175 100H165C165 102.761 162.761 105 160 105V115ZM160 75C162.761 75 165 77.2386 165 80H175C175 71.7157 168.284 65 160 65V75ZM48.4408 105.089C47.1877 106.38 45 105.493 45 103.694H55C55 96.5117 46.267 92.9705 41.2649 98.1243L48.4408 105.089Z" fill="#18626F" mask="url(#path-2-outside-1_854_13)"/>
<circle cx="144" cy="87" r="6" fill="#18626F"/>
<rect x="143" y="91" width="2" height="19" fill="#18626F"/>
<circle cx="76" cy="87" r="6" fill="#18626F"/>
<rect x="75" y="91" width="2" height="19" fill="#18626F"/>
<path d="M117.361 97.25C116.615 98.5422 115.542 99.6152 114.25 100.361C112.958 101.107 111.492 101.5 110 101.5C108.508 101.5 107.042 101.107 105.75 100.361C104.458 99.6152 103.385 98.5422 102.639 97.25" stroke="#18626F" stroke-width="3" stroke-linecap="round" stroke-linejoin="round"/>
<mask id="path-9-outside-2_854_13" maskUnits="userSpaceOnUse" x="45" y="0" width="130" height="80" fill="black">
<rect fill="white" x="45" width="130" height="80"/>
<path fill-rule="evenodd" clip-rule="evenodd" d="M170 15C170 9.47715 165.523 5 160 5H60C54.4772 5 50 9.47715 50 15V35C50 40.5228 54.4771 45 60 45H135.306C137.998 45 139.325 48.2727 137.393 50.1472C134.679 52.7817 133 56.4214 133 60.4416C133 64.4618 134.679 68.1014 137.393 70.7359C140.108 73.3705 143.858 75 148 75C152.142 75 155.892 73.3705 158.607 70.7359C161.321 68.1014 163 64.4618 163 60.4416C163 56.4214 161.321 52.7817 158.607 50.1472C156.675 48.2727 158.002 45 160.694 45H165.183C167.843 45 170 42.8433 170 40.1829V15Z"/>
</mask>
<path fill-rule="evenodd" clip-rule="evenodd" d="M170 15C170 9.47715 165.523 5 160 5H60C54.4772 5 50 9.47715 50 15V35C50 40.5228 54.4771 45 60 45H135.306C137.998 45 139.325 48.2727 137.393 50.1472C134.679 52.7817 133 56.4214 133 60.4416C133 64.4618 134.679 68.1014 137.393 70.7359C140.108 73.3705 143.858 75 148 75C152.142 75 155.892 73.3705 158.607 70.7359C161.321 68.1014 163 64.4618 163 60.4416C163 56.4214 161.321 52.7817 158.607 50.1472C156.675 48.2727 158.002 45 160.694 45H165.183C167.843 45 170 42.8433 170 40.1829V15Z" fill="#FF8A18"/>
<path d="M137.393 70.7359L133.911 74.3239V74.3239L137.393 70.7359ZM158.607 70.7359L162.089 74.3239V74.3239L158.607 70.7359ZM60 10H160V0H60V10ZM55 35V15H45V35H55ZM135.306 40H60V50H135.306V40ZM138 60.4416C138 57.8506 139.075 55.4833 140.876 53.7351L133.911 46.5592C130.283 50.0802 128 54.9921 128 60.4416H138ZM140.876 67.148C139.075 65.3998 138 63.0325 138 60.4416H128C128 65.891 130.283 70.8029 133.911 74.3239L140.876 67.148ZM148 70C145.189 70 142.68 68.8987 140.876 67.148L133.911 74.3239C137.536 77.8423 142.527 80 148 80V70ZM155.124 67.148C153.32 68.8987 150.811 70 148 70V80C153.473 80 158.464 77.8423 162.089 74.3239L155.124 67.148ZM158 60.4416C158 63.0325 156.925 65.3998 155.124 67.148L162.089 74.3239C165.717 70.8029 168 65.891 168 60.4416H158ZM155.124 53.7351C156.925 55.4833 158 57.8506 158 60.4416H168C168 54.9921 165.717 50.0802 162.089 46.5592L155.124 53.7351ZM165.183 40H160.694V50H165.183V40ZM165 15V40.1829H175V15H165ZM135.306 50C133.507 50 132.62 47.8123 133.911 46.5592L140.876 53.7351C146.03 48.7331 142.488 40 135.306 40V50ZM45 35C45 43.2843 51.7157 50 60 50V40C57.2386 40 55 37.7614 55 35H45ZM60 0C51.7157 0 45 6.71573 45 15H55C55 12.2386 57.2386 10 60 10V0ZM162.089 46.5592C163.38 47.8123 162.493 50 160.694 50V40C153.512 40 149.97 48.7331 155.124 53.7351L162.089 46.5592ZM165.183 50C170.605 50 175 45.6047 175 40.1829H165C165 40.0819 165.082 40 165.183 40V50ZM160 10C162.761 10 165 12.2386 165 15H175C175 6.71573 168.284 0 160 0V10Z" fill="#18626F" mask="url(#path-9-outside-2_854_13)"/>
</svg>
