<svg width="18" height="13" viewBox="0 0 18 13" fill="none" xmlns="http://www.w3.org/2000/svg">
<path d="M17.829 4.91353C17.775 4.87727 17.325 4.52371 16.353 4.52371C16.101 4.52371 15.849 4.55091 15.597 4.59623C15.408 3.32706 14.355 2.6834 14.31 2.65621L14.049 2.50209L13.887 2.74686C13.671 3.07322 13.5 3.44491 13.428 3.82566C13.248 4.55091 13.356 5.23989 13.725 5.82915C13.284 6.08298 12.564 6.14644 12.411 6.14644H0.558C0.252 6.14644 0 6.40028 0 6.71757C0 7.76011 0.162 8.80265 0.522 9.78173C0.927 10.8605 1.539 11.6583 2.322 12.1478C3.204 12.6918 4.653 13 6.3 13C7.011 13 7.749 12.9365 8.478 12.8006C9.486 12.6192 10.458 12.2657 11.349 11.749C12.0869 11.3239 12.7474 10.7751 13.302 10.1262C14.247 9.06555 14.805 7.85983 15.21 6.81729H15.381C16.407 6.81729 17.046 6.40028 17.397 6.04672C17.631 5.82915 17.802 5.56625 17.928 5.25802L18 5.04045L17.829 4.91353ZM1.665 5.81102H3.249C3.321 5.81102 3.393 5.74756 3.393 5.66597V4.23361C3.393 4.16109 3.33 4.08856 3.249 4.08856H1.665C1.584 4.08856 1.521 4.15202 1.521 4.23361V5.66597C1.53 5.74756 1.584 5.81102 1.665 5.81102ZM3.852 5.81102H5.436C5.508 5.81102 5.58 5.74756 5.58 5.66597V4.23361C5.58 4.16109 5.517 4.08856 5.436 4.08856H3.852C3.771 4.08856 3.708 4.15202 3.708 4.23361V5.66597C3.717 5.74756 3.771 5.81102 3.852 5.81102ZM6.075 5.81102H7.65C7.74 5.81102 7.803 5.74756 7.803 5.66597V4.23361C7.803 4.16109 7.749 4.08856 7.65 4.08856H6.075C6.003 4.08856 5.94 4.15202 5.94 4.23361V5.66597C5.94 5.74756 5.994 5.81102 6.075 5.81102ZM8.271 5.81102H9.864C9.936 5.81102 9.999 5.74756 9.999 5.66597V4.23361C9.999 4.16109 9.945 4.08856 9.864 4.08856H8.271C8.199 4.08856 8.136 4.15202 8.136 4.23361V5.66597C8.136 5.74756 8.199 5.81102 8.271 5.81102ZM3.852 3.78033H5.436C5.508 3.78033 5.58 3.69874 5.58 3.61715V2.19386C5.58 2.11227 5.517 2.04881 5.436 2.04881H3.852C3.771 2.04881 3.708 2.10321 3.708 2.19386V3.61715C3.717 3.69874 3.771 3.78033 3.852 3.78033ZM6.075 3.78033H7.65C7.74 3.78033 7.803 3.69874 7.803 3.61715V2.19386C7.803 2.11227 7.749 2.04881 7.65 2.04881H6.075C6.003 2.04881 5.94 2.10321 5.94 2.19386V3.61715C5.94 3.69874 5.994 3.78033 6.075 3.78033ZM8.271 3.78033H9.864C9.936 3.78033 9.999 3.69874 9.999 3.61715V2.19386C9.999 2.11227 9.936 2.04881 9.864 2.04881H8.271C8.199 2.04881 8.136 2.10321 8.136 2.19386V3.61715C8.136 3.69874 8.199 3.78033 8.271 3.78033ZM8.271 1.71339H9.864C9.936 1.71339 9.999 1.64993 9.999 1.56834V0.154114C9.999 0.0634589 9.936 0 9.864 0H8.271C8.199 0 8.136 0.0543934 8.136 0.154114V1.56834C8.136 1.64086 8.199 1.71339 8.271 1.71339ZM10.485 5.81102H12.069C12.15 5.81102 12.213 5.74756 12.213 5.66597V4.23361C12.213 4.16109 12.15 4.08856 12.069 4.08856H10.485C10.413 4.08856 10.35 4.15202 10.35 4.23361V5.66597C10.35 5.74756 10.413 5.81102 10.485 5.81102Z" fill="#0288D1"/>
</svg>
