<svg width="18" height="18" viewBox="0 0 18 18" fill="none" xmlns="http://www.w3.org/2000/svg">
<path d="M0 0V18H18V0H0ZM9 9H10.5V15C10.4988 15.3975 10.3404 15.7783 10.0593 16.0593C9.7783 16.3404 9.39746 16.4988 9 16.5H7.5C7.10254 16.4988 6.7217 16.3404 6.44065 16.0593C6.1596 15.7783 6.00119 15.3975 6 15V13.5H7.5V15H9V9ZM13.5 9H16.5V10.5H13.5V12H15C15.3975 12.0012 15.7783 12.1596 16.0593 12.4407C16.3404 12.7217 16.4988 13.1025 16.5 13.5V15C16.4988 15.3975 16.3404 15.7783 16.0593 16.0593C15.7783 16.3404 15.3975 16.4988 15 16.5H12V15H15V13.5H13.5C13.1025 13.4988 12.7217 13.3404 12.4407 13.0593C12.1596 12.7783 12.0012 12.3975 12 12V10.5C12.0012 10.1025 12.1596 9.7217 12.4407 9.44065C12.7217 9.1596 13.1025 9.00119 13.5 9Z" fill="#FFCA28"/>
</svg>
