<svg width="18" height="10" viewBox="0 0 18 10" fill="none" xmlns="http://www.w3.org/2000/svg">
<path d="M0 9.1086H0.596531V6.58947L1.51987 8.78534C1.62858 9.05159 1.7775 9.145 2.07028 9.145C2.36306 9.145 2.50594 9.05159 2.61464 8.78534L3.53798 6.58947V9.10845H4.13452V6.59368C4.13452 6.34804 4.04283 6.22936 3.85327 6.16829C3.40003 6.01726 3.09628 6.14768 2.95847 6.475L2.0527 8.64259L1.17548 6.475C1.04372 6.14768 0.733922 6.01726 0.28125 6.16829C0.0916875 6.22936 0 6.34804 0 6.59368V9.1086ZM4.63078 7.05789H5.22675V8.44583C5.22127 8.52105 5.24925 8.69794 5.57606 8.70381H6.87305V7.05082H7.4707C7.47352 7.05082 7.46958 9.30475 7.46958 9.31422C7.47281 9.87004 6.82523 9.99052 6.52641 10H4.64344V9.571L6.52978 9.57039C6.91369 9.52752 6.86813 9.32295 6.86813 9.25481V9.08739H5.60081C5.01089 9.08152 4.6357 8.80595 4.63078 8.48916C4.63022 8.46043 4.64344 7.07203 4.63078 7.05789Z" fill="#00618A"/>
<path d="M7.92998 9.1086H9.64491C9.84544 9.1086 10.0405 9.06332 10.1953 8.98585C10.4535 8.8595 10.5792 8.68741 10.5792 8.46238V7.99637C10.5792 7.8124 10.4363 7.64032 10.1551 7.5263C10.0062 7.46463 9.82223 7.43229 9.64477 7.43229H8.92181C8.6812 7.43229 8.56645 7.35467 8.53791 7.18319C8.53242 7.16258 8.53242 7.14618 8.53242 7.12558V6.83526C8.53242 6.81886 8.53242 6.80232 8.53791 6.78186C8.56645 6.65144 8.62959 6.61444 8.84166 6.59383L8.89931 6.58977H10.6021V6.16498H8.928C8.68739 6.16498 8.56111 6.18137 8.44622 6.21793C8.09086 6.33661 7.93589 6.52464 7.93589 6.85196V7.22395C7.93589 7.51006 8.23964 7.7557 8.74997 7.81271L8.92195 7.82098H9.54155C9.56461 7.82098 9.58711 7.82098 9.60469 7.82504C9.79369 7.84144 9.87384 7.87844 9.9315 7.952C9.96117 7.98133 9.97819 8.02315 9.97706 8.06602V8.43861C9.97706 8.48329 9.94852 8.5409 9.89142 8.58964C9.83981 8.63898 9.75361 8.67132 9.63928 8.67959L9.57614 8.68365H7.92998V9.1086ZM14.2999 8.36822C14.2999 8.80595 14.6042 9.05098 15.2172 9.10032L15.3897 9.1086H16.9438V8.6832H15.3782C15.0283 8.6832 14.8964 8.58919 14.8964 8.36415V6.16408H14.3004L14.2999 8.36822ZM10.96 8.39048V6.87392C10.96 6.48899 11.2133 6.25523 11.7131 6.18168C11.7664 6.17344 11.8202 6.16932 11.8741 6.16934H13.0057C13.0634 6.16934 13.115 6.1734 13.1728 6.18168C13.6727 6.25508 13.9254 6.48899 13.9254 6.87392V8.39048C13.9254 8.70306 13.8182 8.87003 13.5706 8.97923L14.1584 9.54633H13.4657L12.9905 9.08739L12.5121 9.11973H11.8744C11.7558 9.11933 11.6379 9.10152 11.5239 9.06678C11.1444 8.95637 10.96 8.74307 10.96 8.39048ZM11.6038 8.35347C11.6038 8.37408 11.6093 8.39454 11.6153 8.41936C11.6499 8.59566 11.8049 8.69373 12.0405 8.69373H12.5821L12.0845 8.21313H12.7772L13.2112 8.63266C13.2913 8.58678 13.3435 8.51744 13.3622 8.42763C13.3677 8.40703 13.3677 8.38657 13.3677 8.36596V6.91168C13.3677 6.89528 13.3677 6.87467 13.3622 6.85406C13.3276 6.6901 13.1726 6.59609 12.9426 6.59609H12.0406C11.7764 6.59609 11.604 6.71883 11.604 6.91168L11.6038 8.35347Z" fill="#E48E00"/>
<path d="M17.4683 5.45844C17.102 5.44791 16.8217 5.48432 16.5822 5.59247C16.5142 5.62301 16.4053 5.62361 16.3943 5.71476C16.4318 5.75703 16.4378 5.81991 16.4675 5.87105C16.5246 5.97033 16.6213 6.10255 16.7075 6.1719L16.9992 6.39512C17.1782 6.512 17.3787 6.57909 17.5518 6.69597C17.6535 6.76531 17.7545 6.85226 17.8539 6.93048C17.9028 6.96868 17.9357 7.02915 18 7.05322V7.04209C17.9665 6.99621 17.9577 6.93334 17.9269 6.8858L17.7912 6.74064C17.6588 6.55262 17.4907 6.38745 17.3116 6.24997C17.1688 6.14061 16.8503 5.99259 16.7903 5.81509L16.7799 5.80396C16.881 5.79223 16.9997 5.75282 17.0925 5.72635C17.2496 5.68107 17.3897 5.6928 17.5513 5.64813L17.7705 5.58059V5.53651C17.6887 5.44656 17.6304 5.32788 17.5409 5.2462C17.308 5.0341 17.053 4.8214 16.7905 4.64391C16.6449 4.54583 16.4654 4.48235 16.311 4.39887C16.2593 4.37074 16.1681 4.3566 16.1335 4.30952C16.0528 4.19911 16.0088 4.05921 15.9462 3.93045L15.571 3.08312C15.492 2.88983 15.4402 2.69879 15.3413 2.52551C14.8684 1.69292 14.3587 1.19051 13.5692 0.69697C13.4017 0.591824 13.1989 0.550608 12.9859 0.496607L12.6415 0.474344C12.5717 0.442605 12.4992 0.350997 12.4334 0.306924C12.1719 0.130027 11.5012 -0.254152 11.3072 0.251117C11.1853 0.570163 11.4902 0.881538 11.5995 1.04324C11.6758 1.15666 11.7741 1.28362 11.8285 1.41102C11.8648 1.49451 11.8709 1.57844 11.9017 1.66719C11.9775 1.88576 12.0434 2.12312 12.1417 2.32529C12.1912 2.42758 12.2455 2.53513 12.3082 2.62614C12.3466 2.68194 12.4125 2.70722 12.423 2.79356C12.3587 2.88998 12.3549 3.0392 12.3186 3.16134C12.1555 3.71068 12.2169 4.39345 12.4543 4.80065C12.5269 4.9252 12.6982 5.1931 12.9338 5.09036C13.1399 5.00041 13.0937 4.72258 13.1525 4.47694C13.1663 4.42173 13.158 4.38052 13.1839 4.34351V4.35464L13.3717 4.75597C13.5107 4.99514 13.7568 5.24484 13.9656 5.41347C14.0743 5.50101 14.1595 5.65264 14.2996 5.70378V5.69205H14.2892C14.2618 5.64737 14.2194 5.62857 14.1848 5.59217C14.103 5.50643 14.0123 5.40008 13.9454 5.30185C13.7552 5.02628 13.5872 4.72423 13.4345 4.40985C13.3613 4.26003 13.2976 4.09426 13.2362 3.94158C13.2126 3.88277 13.2131 3.79357 13.1636 3.76348C13.0961 3.8751 12.9967 3.96565 12.9444 4.09787C12.8609 4.30876 12.8505 4.56674 12.8191 4.83359L12.7983 4.84472C12.6533 4.80711 12.6021 4.64736 12.5484 4.51033C12.4116 4.16361 12.3864 3.60479 12.5066 3.20587C12.5374 3.10253 12.678 2.77686 12.621 2.68179C12.5941 2.58658 12.5045 2.53137 12.4545 2.45857C12.389 2.36094 12.3331 2.2564 12.2875 2.14659C12.176 1.87568 12.1238 1.57258 12.0063 1.29926C11.9503 1.16824 11.8553 1.03602 11.7772 0.919745C11.6904 0.791134 11.5937 0.696518 11.5268 0.54068C11.5031 0.485475 11.4708 0.396726 11.5059 0.339716C11.5169 0.301509 11.5334 0.285714 11.5685 0.273379C11.629 0.223439 11.7976 0.289775 11.8602 0.317453C12.0277 0.392063 12.1673 0.462611 12.3089 0.563093C12.3764 0.611228 12.4452 0.704641 12.5276 0.730514H12.6215C12.7682 0.766314 12.9324 0.741043 13.0698 0.785719C13.3121 0.86439 13.5297 0.987285 13.7263 1.12071C14.3272 1.5261 14.8184 2.10372 15.1545 2.79296C15.2089 2.90397 15.2319 3.00972 15.2797 3.12735C15.3759 3.36471 15.4967 3.60915 15.5924 3.84125C15.688 4.07335 15.7808 4.30666 15.9154 4.49935C15.9863 4.60043 16.2603 4.65443 16.3845 4.71084C16.4718 4.75025 16.6147 4.79132 16.6971 4.84487C16.8553 4.94655 17.008 5.0675 17.1564 5.17926C17.2299 5.23567 17.4568 5.35811 17.4683 5.45844ZM12.8084 1.21021C12.7453 1.20912 12.6824 1.2166 12.6211 1.23247V1.2436H12.6315C12.6678 1.32408 12.732 1.37583 12.777 1.44457L12.8814 1.67848L12.8918 1.66795C12.9566 1.61921 12.9857 1.54099 12.9857 1.42231C12.9594 1.39297 12.9561 1.35657 12.9336 1.32182C12.9039 1.27534 12.8464 1.24962 12.8084 1.21021Z" fill="#00618A"/>
</svg>
