<svg width="18" height="10" viewBox="0 0 18 10" fill="none" xmlns="http://www.w3.org/2000/svg">
<path d="M16.106 0C15.6859 0.00033462 15.2779 0.140057 14.9457 0.397264C14.6136 0.65447 14.3762 1.01462 14.2708 1.42125H12.098C11.6496 1.42116 11.2157 1.58014 10.8734 1.86991C10.5312 2.15968 10.3029 2.56145 10.229 3.00375L10.1518 3.47175C10.1153 3.6931 10.0012 3.89424 9.83001 4.0392C9.6588 4.18417 9.44161 4.2635 9.21727 4.263H8.46652C8.36135 3.85634 8.12406 3.49615 7.79194 3.239C7.45982 2.98184 7.05168 2.84231 6.63165 2.84231C6.21161 2.84231 5.80347 2.98184 5.47135 3.239C5.13923 3.49615 4.90194 3.85634 4.79677 4.263H3.73027C3.61491 3.81638 3.34062 3.42717 2.95883 3.16831C2.57703 2.90946 2.11394 2.79872 1.65634 2.85687C1.19875 2.91501 0.778067 3.13805 0.473146 3.48417C0.168226 3.83028 0 4.27573 0 4.737C0 5.19827 0.168226 5.64372 0.473146 5.98983C0.778067 6.33595 1.19875 6.55899 1.65634 6.61713C2.11394 6.67528 2.57703 6.56454 2.95883 6.30569C3.34062 6.04683 3.61491 5.65762 3.73027 5.211H4.79677C4.90169 5.61799 5.13891 5.97856 5.47113 6.236C5.80336 6.49344 6.21173 6.63314 6.63202 6.63314C7.05231 6.63314 7.46069 6.49344 7.79291 6.236C8.12513 5.97856 8.36235 5.61799 8.46727 5.211H9.21727C9.44173 5.21033 9.65911 5.28957 9.83047 5.43455C10.0018 5.57953 10.116 5.78078 10.1525 6.00225L10.2298 6.4695C10.3035 6.91194 10.5317 7.31388 10.874 7.6038C11.2162 7.89372 11.6502 8.05281 12.0988 8.05275H12.3763C12.4916 8.49942 12.7658 8.88871 13.1476 9.14765C13.5294 9.40658 13.9925 9.51738 14.4501 9.45928C14.9077 9.40118 15.3285 9.17816 15.6334 8.83203C15.9384 8.4859 16.1066 8.04043 16.1066 7.57913C16.1066 7.11782 15.9384 6.67235 15.6334 6.32622C15.3285 5.98009 14.9077 5.75707 14.4501 5.69897C13.9925 5.64086 13.5294 5.75167 13.1476 6.0106C12.7658 6.26954 12.4916 6.65883 12.3763 7.1055H12.0988C11.8743 7.10597 11.657 7.02653 11.4858 6.88142C11.3146 6.7363 11.2006 6.53498 11.1643 6.3135L11.087 5.84625C11.0155 5.4165 10.7977 5.02464 10.4705 4.737C10.7973 4.44893 11.0146 4.05682 11.0855 3.627L11.1635 3.1605C11.1999 2.93902 11.3138 2.7377 11.4851 2.59258C11.6563 2.44747 11.8736 2.36803 12.098 2.3685H14.27C14.3585 2.71177 14.5416 3.02333 14.7983 3.26779C15.055 3.51225 15.3752 3.6798 15.7223 3.75142C16.0695 3.82304 16.4299 3.79585 16.7624 3.67293C17.0949 3.55002 17.3862 3.33631 17.6034 3.05609C17.8205 2.77587 17.9547 2.44037 17.9907 2.08771C18.0267 1.73504 17.9631 1.37935 17.807 1.06104C17.651 0.742724 17.4088 0.474556 17.108 0.286997C16.8072 0.099438 16.4598 6.90825e-06 16.1053 0M16.1053 0.94725C16.3565 0.94725 16.5974 1.04705 16.7751 1.22469C16.9527 1.40234 17.0525 1.64327 17.0525 1.8945C17.0526 2.01896 17.0282 2.14221 16.9806 2.25723C16.9331 2.37224 16.8633 2.47675 16.7753 2.56479C16.6874 2.65283 16.5829 2.72267 16.4679 2.77032C16.353 2.81797 16.2297 2.8425 16.1053 2.8425C15.9808 2.8425 15.8576 2.81797 15.7426 2.77032C15.6276 2.72267 15.5232 2.65283 15.4352 2.56479C15.3472 2.47675 15.2775 2.37224 15.2299 2.25723C15.1824 2.14221 15.1579 2.01896 15.158 1.8945C15.158 1.77004 15.1825 1.6468 15.2302 1.53183C15.2778 1.41686 15.3477 1.3124 15.4357 1.22443C15.5238 1.13646 15.6283 1.0667 15.7433 1.01914C15.8583 0.97158 15.9816 0.947151 16.106 0.94725M1.89502 3.78975C2.01948 3.78965 2.14273 3.81408 2.25775 3.86164C2.37276 3.9092 2.47727 3.97896 2.56531 4.06693C2.65335 4.1549 2.72319 4.25935 2.77084 4.37433C2.81849 4.4893 2.84302 4.61254 2.84302 4.737C2.84302 4.86146 2.81849 4.9847 2.77084 5.09967C2.72319 5.21464 2.65335 5.3191 2.56531 5.40707C2.47727 5.49504 2.37276 5.5648 2.25775 5.61236C2.14273 5.65992 2.01948 5.68435 1.89502 5.68425C1.64379 5.68425 1.40286 5.58445 1.22521 5.40681C1.04757 5.22916 0.94777 4.98823 0.94777 4.737C0.94777 4.48577 1.04757 4.24484 1.22521 4.06719C1.40286 3.88955 1.64379 3.78975 1.89502 3.78975ZM6.63202 3.78975C6.75641 3.78975 6.87959 3.81425 6.99452 3.86186C7.10944 3.90946 7.21387 3.97923 7.30183 4.06719C7.38979 4.15515 7.45956 4.25958 7.50716 4.3745C7.55477 4.48943 7.57927 4.61261 7.57927 4.737C7.57927 4.98823 7.47947 5.22916 7.30183 5.40681C7.12418 5.58445 6.88325 5.68425 6.63202 5.68425C6.38092 5.68405 6.14018 5.58416 5.9627 5.40654C5.78522 5.22892 5.68552 4.9881 5.68552 4.737C5.68552 4.48577 5.78532 4.24484 5.96296 4.06719C6.14061 3.88955 6.38154 3.78975 6.63277 3.78975M14.2123 6.63225C14.4635 6.63225 14.7044 6.73205 14.8821 6.90969C15.0597 7.08734 15.1595 7.32827 15.1595 7.5795C15.1595 7.83073 15.0597 8.07166 14.8821 8.24931C14.7044 8.42695 14.4635 8.52675 14.2123 8.52675C14.0878 8.52685 13.9646 8.50242 13.8495 8.45486C13.7345 8.4073 13.63 8.33754 13.542 8.24957C13.4539 8.1616 13.3841 8.05714 13.3364 7.94217C13.2888 7.8272 13.2643 7.70396 13.2643 7.5795C13.2642 7.45504 13.2886 7.33179 13.3362 7.21677C13.3837 7.10176 13.4535 6.99725 13.5414 6.90921C13.6294 6.82117 13.7339 6.75133 13.8488 6.70368C13.9638 6.65603 14.0871 6.6315 14.2115 6.6315" fill="#EA4B71"/>
</svg>
