<svg width="18" height="21" viewBox="0 0 18 21" fill="none" xmlns="http://www.w3.org/2000/svg">
<path d="M9 12.75V14.25H12C12.3978 14.25 12.7794 14.092 13.0607 13.8107C13.342 13.5294 13.5 13.1478 13.5 12.75V11.25C13.5 10.8522 13.342 10.4706 13.0607 10.1893C12.7794 9.90804 12.3978 9.75 12 9.75H10.5V8.25H13.5V6.75H10.5C10.1022 6.75 9.72064 6.90803 9.43934 7.18934C9.15804 7.47064 9 7.85218 9 8.25V9.75C9 10.1478 9.15804 10.5294 9.43934 10.8107C9.72064 11.092 10.1022 11.25 10.5 11.25H12V12.75H9Z" fill="#8BC34A"/>
<path d="M9 0L0 5.25V15.75L3 17.25H7.5V7.125C7.5 7.02554 7.46049 6.93016 7.39017 6.85983C7.31984 6.78951 7.22446 6.75 7.125 6.75H6.375C6.27554 6.75 6.18016 6.78951 6.10983 6.85983C6.03951 6.93016 6 7.02554 6 7.125V15.75H3L1.5 14.9745V6.11025L9 1.7355L16.5 6.11025V14.8875L9 19.2623L7.69125 18.4957L6.75 19.6875L9 21L18 15.75V5.25L9 0Z" fill="#8BC34A"/>
</svg>
