<svg width="18" height="18" viewBox="0 0 18 18" fill="none" xmlns="http://www.w3.org/2000/svg">
<path d="M8.99993 17.5709C4.27388 17.5709 0.428836 13.7262 0.428836 9.00004C0.428836 4.27385 4.27395 0.429052 9 0.429052C13.726 0.429052 17.571 4.27414 17.571 9.00025C17.571 13.7263 13.726 17.5709 8.99993 17.5709Z" fill="#85EA2D"/>
<path d="M8.99993 0.857963C13.4967 0.857963 17.1419 4.50315 17.1419 9.00004C17.1419 13.4967 13.4967 17.1421 8.99993 17.1421C4.5033 17.1421 0.857953 13.4967 0.857953 9.00004C0.857953 4.50336 4.5033 0.857963 8.99993 0.857963ZM8.99993 0C4.03727 0 0 4.03739 0 9.00004C0 13.9627 4.03734 18 8.99993 18C13.9625 18 18 13.9626 18 9.00011C18 4.03732 13.9625 0 8.99993 0Z" fill="#173647"/>
<path d="M5.66705 6.09047C5.63934 6.39844 5.67731 6.71689 5.65678 7.02831C5.63252 7.33987 5.59441 7.64784 5.53212 7.95588C5.44563 8.39534 5.17212 8.72764 4.7951 9.00454C5.52888 9.48217 5.61185 10.2226 5.66023 10.9737C5.68448 11.3787 5.67408 11.787 5.71563 12.1885C5.74678 12.4999 5.86786 12.5795 6.18989 12.5898C6.32137 12.5932 6.45609 12.5898 6.60867 12.5898V13.5519C5.65699 13.7145 4.87139 13.4447 4.6774 12.6384C4.61503 12.3442 4.57348 12.0431 4.55977 11.7385C4.53888 11.4166 4.57348 11.0948 4.54936 10.773C4.4801 9.89034 4.36584 9.59278 3.52153 9.55122V8.45419C3.58204 8.44045 3.64326 8.43005 3.70491 8.42304C4.16869 8.39879 4.36584 8.25682 4.46625 7.80007C4.51477 7.54406 4.54247 7.28446 4.55273 7.02142C4.58747 6.51966 4.57362 6.0075 4.65996 5.50919C4.78104 4.79277 5.22422 4.44661 5.96145 4.40513C6.16901 4.39465 6.38016 4.40513 6.61887 4.40513V5.38811C6.51853 5.39514 6.43198 5.40878 6.34205 5.40878C5.74334 5.3879 5.71205 5.59209 5.66705 6.09047ZM6.81947 8.36764H6.80569C6.45954 8.35041 6.16198 8.62027 6.14454 8.96636C6.12724 9.31595 6.3971 9.61366 6.74325 9.63082H6.78473C7.12751 9.65163 7.42148 9.38845 7.4423 9.04588V9.01136C7.44933 8.66183 7.16899 8.37467 6.81947 8.36764ZM8.98952 8.36764C8.65385 8.35723 8.37338 8.62027 8.36311 8.9525C8.36311 8.97339 8.36311 8.99068 8.3667 9.01136C8.3667 9.38859 8.6227 9.63096 9.01041 9.63096C9.39108 9.63096 9.63 9.38177 9.63 8.99068C9.62641 8.61338 9.37364 8.36412 8.98952 8.36764ZM11.2115 8.36771C10.8586 8.36068 10.5642 8.64123 10.554 8.9942C10.5538 9.07787 10.5701 9.16076 10.602 9.2381C10.6339 9.31545 10.6808 9.38572 10.74 9.44488C10.7991 9.50404 10.8694 9.55092 10.9468 9.58283C11.0241 9.61474 11.107 9.63105 11.1907 9.63082H11.1977C11.5161 9.68622 11.838 9.37825 11.8588 9.00798C11.8759 8.66527 11.5644 8.36771 11.2115 8.36771ZM14.2605 8.41953C13.8589 8.4023 13.6581 8.26737 13.5579 7.88648C13.4958 7.64277 13.4575 7.39357 13.4437 7.14243C13.416 6.67864 13.4194 6.21141 13.3883 5.74762C13.3156 4.64715 12.5198 4.26303 11.3637 4.45315V5.4085C11.547 5.4085 11.689 5.4085 11.8309 5.41195C12.0767 5.41532 12.2636 5.50891 12.2877 5.78236C12.3119 6.03148 12.3119 6.28411 12.3362 6.53682C12.3848 7.03879 12.4123 7.54736 12.4989 8.04223C12.5752 8.45068 12.8554 8.7552 13.2048 9.0044C12.5924 9.41622 12.4124 10.0045 12.3812 10.6656C12.364 11.119 12.3535 11.5758 12.3294 12.0327C12.3086 12.4479 12.1634 12.5829 11.7446 12.5933C11.6269 12.5968 11.5127 12.6072 11.3811 12.6141V13.5936C11.6269 13.5936 11.8518 13.6074 12.0767 13.5936C12.7757 13.552 13.1979 13.2129 13.3365 12.5345C13.3952 12.161 13.4298 11.7842 13.4403 11.4063C13.4644 11.0601 13.4612 10.7106 13.4957 10.3681C13.5475 9.83156 13.7933 9.61007 14.3298 9.57562C14.3817 9.56859 14.4301 9.55832 14.4787 9.54103V8.44386C14.3885 8.43338 14.3261 8.42311 14.2605 8.41953Z" fill="#173647"/>
</svg>
