<svg width="546" height="546" viewBox="0 0 546 546" fill="none" xmlns="http://www.w3.org/2000/svg">
<path d="M273 446.895C389.934 446.895 484.728 441.361 484.728 434.534C484.728 427.707 389.934 422.173 273 422.173C156.066 422.173 61.2721 427.707 61.2721 434.534C61.2721 441.361 156.066 446.895 273 446.895Z" fill="#11454E"/>
<path d="M70.8036 277.113L69.6973 277.242L71.6632 294.054L72.7695 293.924L70.8036 277.113Z" fill="#18626F"/>
<path d="M73.5027 300.177L72.3964 300.307L73.3882 308.788L74.4945 308.659L73.5027 300.177Z" fill="#18626F"/>
<path d="M146.972 242.833L145.662 239.153C144.76 236.624 143.027 234.475 140.746 233.059C138.465 231.643 135.771 231.043 133.104 231.357L80.9171 237.461C77.7909 237.828 74.9382 239.421 72.9867 241.891C71.0351 244.36 70.1444 247.504 70.5104 250.63L85.3616 377.63C85.4849 378.692 85.8164 379.72 86.3371 380.654C86.8579 381.588 87.5576 382.41 88.3964 383.073C89.2352 383.736 90.1965 384.228 91.2253 384.519C92.2542 384.811 93.3304 384.896 94.3924 384.772L281.124 362.932C282.189 362.811 283.218 362.481 284.155 361.962C285.091 361.442 285.916 360.743 286.582 359.904C287.247 359.065 287.74 358.103 288.033 357.072C288.326 356.042 288.413 354.964 288.288 353.901L275.402 244.111C275.153 241.968 274.063 240.012 272.371 238.672C270.68 237.333 268.526 236.72 266.382 236.969L157.947 249.658C155.615 249.928 153.261 249.401 151.269 248.161C149.276 246.922 147.761 245.044 146.972 242.833Z" fill="#18626F"/>
<path d="M152.183 187.606L93.1849 199.363L109.383 280.647L168.381 268.89L152.183 187.606Z" fill="#18626F"/>
<path opacity="0.7" d="M152.183 187.606L93.1849 199.363L109.383 280.647L168.381 268.89L152.183 187.606Z" fill="white"/>
<g opacity="0.4">
<path d="M144.308 207.136L107.966 214.387C107.119 214.551 106.242 214.375 105.525 213.897C104.807 213.418 104.307 212.676 104.133 211.832C103.969 210.985 104.145 210.108 104.623 209.39C105.102 208.673 105.844 208.173 106.688 207.999L143.052 200.781C143.899 200.616 144.776 200.792 145.493 201.271C146.211 201.749 146.711 202.491 146.885 203.336C147.039 204.181 146.856 205.052 146.374 205.763C145.892 206.474 145.15 206.967 144.308 207.136Z" fill="#18626F"/>
<path d="M146.983 220.6L110.641 227.884C109.797 228.045 108.922 227.867 108.207 227.389C107.492 226.911 106.994 226.171 106.819 225.329C106.658 224.484 106.836 223.609 107.314 222.894C107.792 222.179 108.532 221.681 109.375 221.507L145.717 214.267C146.562 214.106 147.436 214.283 148.151 214.761C148.866 215.239 149.365 215.98 149.539 216.822C149.687 217.66 149.503 218.524 149.026 219.229C148.549 219.934 147.817 220.426 146.983 220.6Z" fill="#18626F"/>
<path d="M149.659 234.043L113.317 241.283C112.472 241.444 111.597 241.266 110.882 240.788C110.167 240.31 109.669 239.57 109.495 238.728C109.334 237.883 109.511 237.008 109.99 236.293C110.468 235.578 111.208 235.08 112.05 234.906L148.392 227.655C149.237 227.494 150.111 227.671 150.826 228.149C151.542 228.627 152.04 229.368 152.214 230.21C152.378 231.057 152.202 231.934 151.724 232.651C151.245 233.369 150.503 233.869 149.659 234.043Z" fill="#18626F"/>
<path d="M152.345 247.54L116.003 254.78C115.157 254.944 114.279 254.768 113.562 254.29C112.844 253.811 112.344 253.069 112.17 252.225C112.006 251.378 112.182 250.501 112.66 249.783C113.139 249.066 113.881 248.566 114.726 248.392L151.067 241.152C151.914 240.987 152.791 241.164 153.509 241.642C154.226 242.12 154.726 242.862 154.9 243.707C155.065 244.554 154.888 245.431 154.41 246.148C153.932 246.866 153.19 247.366 152.345 247.54Z" fill="#18626F"/>
<path d="M145.083 262.904L118.679 268.168C117.834 268.329 116.959 268.151 116.244 267.673C115.529 267.195 115.031 266.455 114.857 265.613C114.692 264.766 114.868 263.889 115.347 263.171C115.825 262.454 116.567 261.954 117.412 261.78L143.816 256.516C144.661 256.355 145.536 256.533 146.251 257.011C146.966 257.489 147.464 258.229 147.638 259.072C147.803 259.918 147.627 260.795 147.148 261.513C146.67 262.231 145.928 262.731 145.083 262.904Z" fill="#18626F"/>
</g>
<path d="M236.248 171.941L176.645 180.095L187.879 262.213L247.483 254.059L236.248 171.941Z" fill="#18626F"/>
<path opacity="0.7" d="M236.248 171.941L176.645 180.095L187.879 262.213L247.483 254.059L236.248 171.941Z" fill="white"/>
<g opacity="0.4">
<path d="M227.201 190.974L190.488 195.998C189.633 196.11 188.769 195.88 188.082 195.359C187.395 194.838 186.941 194.067 186.819 193.213C186.707 192.358 186.937 191.493 187.458 190.806C187.979 190.12 188.75 189.666 189.604 189.544L226.317 184.521C227.172 184.409 228.037 184.638 228.724 185.159C229.41 185.681 229.864 186.452 229.986 187.305C230.098 188.16 229.869 189.025 229.348 189.712C228.826 190.399 228.055 190.852 227.201 190.974Z" fill="#18626F"/>
<path d="M229.058 204.548L192.345 209.571C191.49 209.683 190.625 209.454 189.938 208.933C189.251 208.411 188.798 207.64 188.676 206.787C188.567 205.933 188.798 205.071 189.319 204.387C189.84 203.703 190.609 203.25 191.46 203.128L228.173 198.105C229.027 197.993 229.89 198.221 230.577 198.74C231.263 199.259 231.718 200.027 231.843 200.879C231.955 201.734 231.725 202.599 231.204 203.285C230.683 203.972 229.912 204.426 229.058 204.548Z" fill="#18626F"/>
<path d="M204.313 221.769L194.201 223.156C193.346 223.268 192.482 223.038 191.795 222.517C191.108 221.996 190.654 221.225 190.532 220.371C190.42 219.516 190.649 218.651 191.171 217.965C191.692 217.278 192.463 216.824 193.317 216.702L203.44 215.315C204.293 215.206 205.155 215.437 205.839 215.958C206.524 216.479 206.976 217.248 207.098 218.1C207.21 218.955 206.98 219.819 206.459 220.506C205.938 221.193 205.167 221.647 204.313 221.769Z" fill="#18626F"/>
<path d="M223.936 219.082L213.813 220.469C212.96 220.578 212.098 220.347 211.414 219.826C210.729 219.305 210.277 218.536 210.155 217.685C210.043 216.83 210.273 215.965 210.794 215.278C211.315 214.591 212.086 214.138 212.94 214.016L223.052 212.64C223.905 212.527 224.768 212.755 225.455 213.274C226.142 213.793 226.596 214.562 226.721 215.413C226.833 216.268 226.604 217.133 226.082 217.82C225.561 218.507 224.79 218.96 223.936 219.082Z" fill="#18626F"/>
<path d="M232.771 231.706L196.058 236.729C195.203 236.841 194.338 236.612 193.651 236.091C192.964 235.569 192.511 234.798 192.389 233.945C192.279 233.091 192.51 232.23 193.031 231.545C193.552 230.861 194.322 230.409 195.173 230.286L231.886 225.252C232.741 225.14 233.606 225.37 234.293 225.891C234.98 226.412 235.433 227.183 235.555 228.037C235.667 228.892 235.438 229.757 234.917 230.443C234.395 231.13 233.624 231.584 232.771 231.706Z" fill="#18626F"/>
<path d="M224.603 246.655L197.914 250.303C197.062 250.412 196.202 250.183 195.518 249.664C194.834 249.145 194.38 248.379 194.256 247.529C194.143 246.676 194.371 245.813 194.89 245.126C195.41 244.439 196.178 243.985 197.029 243.86L223.718 240.213C224.57 240.103 225.43 240.333 226.114 240.852C226.798 241.37 227.252 242.137 227.376 242.986C227.489 243.84 227.261 244.703 226.742 245.39C226.223 246.076 225.454 246.531 224.603 246.655Z" fill="#18626F"/>
</g>
<path d="M180.006 183.922L120.075 189.145L127.27 271.714L187.201 266.492L180.006 183.922Z" fill="#18626F"/>
<path opacity="0.8" d="M180.006 183.922L120.075 189.145L127.27 271.714L187.201 266.492L180.006 183.922Z" fill="white"/>
<g opacity="0.4">
<path d="M170.035 202.506L133.115 205.716C132.256 205.786 131.404 205.515 130.744 204.961C130.084 204.407 129.668 203.615 129.588 202.757C129.521 201.9 129.794 201.051 130.347 200.393C130.901 199.735 131.691 199.321 132.547 199.241L169.468 195.965C170.327 195.895 171.178 196.167 171.839 196.72C172.499 197.274 172.914 198.066 172.995 198.924C173.037 199.354 172.994 199.788 172.867 200.201C172.741 200.614 172.535 200.998 172.26 201.33C171.985 201.663 171.647 201.939 171.265 202.14C170.883 202.342 170.465 202.466 170.035 202.506Z" fill="#18626F"/>
<path d="M171.226 216.156L134.305 219.432C133.446 219.502 132.594 219.23 131.934 218.676C131.274 218.122 130.858 217.331 130.778 216.473C130.708 215.614 130.98 214.762 131.534 214.102C132.087 213.441 132.879 213.026 133.737 212.945L170.658 209.669C171.517 209.6 172.369 209.871 173.029 210.425C173.689 210.979 174.105 211.771 174.185 212.629C174.255 213.488 173.983 214.34 173.429 215C172.875 215.66 172.084 216.075 171.226 216.156Z" fill="#18626F"/>
<path d="M172.416 229.806L135.495 233.082C134.636 233.152 133.784 232.88 133.124 232.326C132.464 231.772 132.049 230.981 131.968 230.123C131.898 229.264 132.17 228.412 132.724 227.752C133.278 227.091 134.069 226.676 134.927 226.595L171.848 223.319C172.707 223.25 173.559 223.521 174.219 224.075C174.879 224.629 175.295 225.421 175.375 226.279C175.445 227.138 175.174 227.99 174.62 228.65C174.066 229.31 173.274 229.725 172.416 229.806Z" fill="#18626F"/>
<path d="M173.628 243.456L136.708 246.732C135.849 246.802 134.997 246.53 134.336 245.976C133.676 245.422 133.261 244.631 133.18 243.773C133.11 242.914 133.382 242.062 133.936 241.402C134.49 240.741 135.282 240.326 136.14 240.245L173.06 237.035C173.919 236.965 174.771 237.237 175.431 237.791C176.092 238.344 176.507 239.136 176.587 239.994C176.639 240.842 176.36 241.678 175.808 242.323C175.255 242.969 174.474 243.375 173.628 243.456Z" fill="#18626F"/>
<path d="M164.706 257.99L137.876 260.327C137.012 260.406 136.151 260.139 135.484 259.584C134.816 259.029 134.396 258.232 134.316 257.368C134.246 256.509 134.518 255.657 135.072 254.997C135.626 254.337 136.417 253.921 137.275 253.841L164.106 251.504C164.965 251.434 165.817 251.706 166.477 252.26C167.137 252.813 167.553 253.605 167.633 254.463C167.703 255.317 167.436 256.165 166.889 256.824C166.342 257.483 165.559 257.902 164.706 257.99Z" fill="#18626F"/>
</g>
<path d="M253.033 179.911L192.945 182.807L196.936 265.594L257.024 262.697L253.033 179.911Z" fill="#18626F"/>
<path opacity="0.8" d="M253.033 179.911L192.945 182.807L196.936 265.594L257.024 262.697L253.033 179.911Z" fill="white"/>
<g opacity="0.4">
<path d="M242.358 198.072L205.351 199.863C204.491 199.899 203.651 199.595 203.013 199.017C202.376 198.438 201.992 197.632 201.944 196.773C201.908 195.913 202.212 195.073 202.79 194.436C203.368 193.798 204.174 193.414 205.034 193.366L242.053 191.575C242.913 191.539 243.752 191.843 244.39 192.422C245.027 193 245.412 193.806 245.46 194.665C245.495 195.527 245.19 196.368 244.609 197.006C244.029 197.644 243.22 198.027 242.358 198.072Z" fill="#18626F"/>
<path d="M243.025 211.766L206.006 213.546C205.146 213.582 204.306 213.278 203.669 212.699C203.031 212.121 202.647 211.315 202.599 210.456C202.563 209.594 202.869 208.753 203.449 208.115C204.03 207.477 204.839 207.094 205.7 207.049L242.708 205.258C243.57 205.222 244.411 205.528 245.049 206.108C245.687 206.689 246.07 207.498 246.115 208.359C246.151 209.219 245.847 210.059 245.268 210.696C244.69 211.334 243.884 211.718 243.025 211.766Z" fill="#18626F"/>
<path d="M216.871 226.792L206.672 227.283C205.812 227.319 204.972 227.015 204.335 226.437C203.697 225.858 203.313 225.052 203.265 224.193C203.229 223.333 203.533 222.494 204.111 221.856C204.69 221.218 205.496 220.834 206.355 220.786L216.554 220.284C217.416 220.248 218.257 220.554 218.895 221.134C219.533 221.715 219.916 222.524 219.961 223.385C219.997 224.245 219.693 225.085 219.115 225.722C218.537 226.36 217.731 226.744 216.871 226.792Z" fill="#18626F"/>
<path d="M236.647 225.787L226.448 226.279C225.588 226.315 224.748 226.01 224.111 225.432C223.473 224.854 223.089 224.048 223.041 223.188C223.005 222.328 223.309 221.489 223.888 220.851C224.466 220.214 225.272 219.829 226.131 219.781L236.331 219.29C237.191 219.254 238.03 219.558 238.668 220.137C239.305 220.715 239.69 221.521 239.738 222.38C239.773 223.24 239.469 224.08 238.891 224.717C238.313 225.355 237.507 225.739 236.647 225.787Z" fill="#18626F"/>
<path d="M244.346 239.143L207.327 240.922C206.467 240.958 205.628 240.654 204.99 240.076C204.352 239.498 203.968 238.692 203.92 237.832C203.884 236.97 204.19 236.129 204.771 235.491C205.351 234.853 206.16 234.47 207.021 234.425L244.029 232.634C244.891 232.599 245.732 232.904 246.37 233.485C247.008 234.065 247.391 234.874 247.436 235.735C247.472 236.596 247.168 237.435 246.59 238.073C246.011 238.71 245.205 239.094 244.346 239.143Z" fill="#18626F"/>
<path d="M234.889 253.317L207.993 254.616C207.133 254.652 206.294 254.348 205.656 253.77C205.018 253.191 204.634 252.385 204.586 251.526C204.55 250.666 204.854 249.826 205.433 249.189C206.011 248.551 206.817 248.167 207.676 248.119L234.572 246.819C235.432 246.784 236.272 247.088 236.91 247.666C237.547 248.244 237.931 249.05 237.979 249.91C238.015 250.77 237.711 251.609 237.133 252.247C236.554 252.884 235.749 253.269 234.889 253.317Z" fill="#18626F"/>
</g>
<path d="M163.636 245.181L162.675 241.589C162.002 239.102 160.439 236.95 158.283 235.54C156.126 234.131 153.527 233.563 150.98 233.945L98.7933 240.049C95.6272 240.437 92.7114 241.966 90.5925 244.351C88.4736 246.735 87.2971 249.81 87.2836 253L90.2429 377.324C90.2606 378.348 90.4972 379.357 90.9371 380.281C91.3769 381.206 92.0096 382.026 92.7927 382.686C93.5758 383.346 94.4912 383.831 95.4772 384.108C96.4633 384.385 97.4971 384.447 98.5093 384.291L285.241 362.451C287.409 362.188 289.407 361.144 290.861 359.513C292.314 357.883 293.123 355.779 293.137 353.595L290.581 246.12C290.562 245.096 290.324 244.087 289.883 243.162C289.442 242.238 288.808 241.418 288.024 240.758C287.24 240.098 286.324 239.613 285.338 239.337C284.351 239.06 283.317 238.998 282.304 239.153L173.879 251.832C171.653 252.171 169.38 251.682 167.492 250.456C165.604 249.23 164.232 247.353 163.636 245.181Z" fill="#18626F"/>
<path opacity="0.3" d="M163.636 245.181L162.675 241.589C162.002 239.102 160.439 236.95 158.283 235.54C156.126 234.131 153.527 233.563 150.98 233.945L98.7933 240.049C95.6272 240.437 92.7114 241.966 90.5925 244.351C88.4736 246.735 87.2971 249.81 87.2836 253L90.2429 377.324C90.2606 378.348 90.4972 379.357 90.9371 380.281C91.3769 381.206 92.0096 382.026 92.7927 382.686C93.5758 383.346 94.4912 383.831 95.4772 384.108C96.4633 384.385 97.4971 384.447 98.5093 384.291L285.241 362.451C287.409 362.188 289.407 361.144 290.861 359.513C292.314 357.883 293.123 355.779 293.137 353.595L290.581 246.12C290.562 245.096 290.324 244.087 289.883 243.162C289.442 242.238 288.808 241.418 288.024 240.758C287.24 240.098 286.324 239.613 285.338 239.337C284.351 239.06 283.317 238.998 282.304 239.153L173.879 251.832C171.653 252.171 169.38 251.682 167.492 250.456C165.604 249.23 164.232 247.353 163.636 245.181Z" fill="black"/>
<path d="M346.164 185.416C345.356 189.467 344.493 193.464 343.521 197.428C342.55 201.392 341.6 205.4 340.54 209.364L338.924 215.293L338.717 216.058C338.618 216.385 338.509 216.713 338.378 217.051C338.099 217.795 337.732 218.502 337.286 219.159C336.745 219.975 336.051 220.679 335.244 221.234C334.355 221.837 333.331 222.212 332.263 222.326C330.646 222.443 329.029 222.099 327.6 221.332C326.515 220.741 325.497 220.035 324.564 219.224C322.876 217.749 321.383 216.065 320.12 214.212L323.232 211.504C324.718 212.66 326.287 213.704 327.928 214.627C328.64 215.031 329.395 215.357 330.177 215.599C330.843 215.817 331.433 215.785 331.433 215.675C331.433 215.566 331.324 215.675 331.269 215.675C331.215 215.675 331.269 215.675 331.269 215.49C331.269 215.304 331.4 215.108 331.477 214.824L331.728 213.612L332.995 207.649L335.561 195.725C336.391 191.75 337.286 187.764 338.149 183.833L346.164 185.416Z" fill="#FFC3BD"/>
<path d="M342.539 172.935C333.224 180.065 333.606 193.508 333.606 193.508L350.259 197.494C350.259 197.494 355.381 183.975 353.306 179.028C351.144 173.874 347.791 168.916 342.539 172.935Z" fill="#263238"/>
<path d="M324.062 211.668L317.936 205.542L314.66 215.129C314.66 215.129 319.836 217.914 324.783 215.282L324.062 211.668Z" fill="#FFC3BD"/>
<path d="M309.451 204.592L308.326 212.17L314.627 215.129L317.936 205.542L309.451 204.592Z" fill="#FFC3BD"/>
<path d="M396.527 426.475L387.158 427.392L377.406 405.083L386.776 404.166L396.527 426.475Z" fill="#FFC3BD"/>
<path d="M456.893 393.497L449.85 400.103L434.66 383.407L441.703 376.8L456.893 393.497Z" fill="#FFC3BD"/>
<path d="M446.628 396.937L451.913 387.414C452.002 387.247 452.149 387.119 452.326 387.052C452.503 386.986 452.698 386.987 452.874 387.054L461.01 390.155C461.211 390.24 461.392 390.366 461.541 390.525C461.69 390.684 461.803 390.873 461.875 391.079C461.946 391.285 461.972 391.504 461.953 391.721C461.934 391.938 461.869 392.149 461.763 392.339C459.863 395.615 458.782 397.122 456.456 401.315C455.026 403.893 452.241 409.8 450.265 413.327C448.288 416.855 444.663 415.129 445.165 413.469C447.425 406.022 446.999 401.883 446.366 398.607C446.258 398.037 446.35 397.446 446.628 396.937Z" fill="#263238"/>
<path d="M385.913 424.499H397.422C397.629 424.499 397.83 424.568 397.994 424.694C398.158 424.82 398.276 424.997 398.329 425.198L400.83 434.294C400.891 434.509 400.901 434.735 400.86 434.954C400.818 435.174 400.725 435.38 400.589 435.557C400.454 435.735 400.278 435.878 400.077 435.975C399.876 436.072 399.655 436.121 399.432 436.118C395.37 436.118 393.448 436.118 388.392 436.118H372.929C368.714 436.118 367.84 431.87 369.576 431.477C377.384 429.751 381.872 427.371 384.286 425.099C384.733 424.702 385.314 424.487 385.913 424.499Z" fill="#263238"/>
<path opacity="0.2" d="M377.417 405.094L382.44 416.593H392.214L386.787 404.177L377.417 405.094Z" fill="black"/>
<path opacity="0.2" d="M441.703 376.811L434.66 383.418L442.5 392.023L449.544 385.405L441.703 376.811Z" fill="black"/>
<path d="M345.356 171.559C345.356 171.559 341.141 173.404 355.271 229.314L394.518 225.918C392.487 210.008 391.613 200.158 396.407 166.71C390.816 166.049 385.185 165.797 379.558 165.957C373.588 166.046 367.633 166.561 361.736 167.496C356.211 168.572 350.744 169.928 345.356 171.559Z" fill="#263238"/>
<path d="M379.557 165.64C379.557 165.64 381.741 165.64 384.406 165.64C385.989 168.075 380.857 178.744 372.394 185.722C371.105 181.843 368.738 178.411 365.569 175.828L379.557 165.64Z" fill="white"/>
<path d="M361.736 167.354C361.736 167.354 360.742 167.496 358.373 168.042C356.789 170.478 354.114 180.884 358.777 186.191C359.951 182.167 362.306 178.587 365.536 175.916L361.736 167.354Z" fill="white"/>
<path d="M376.052 146.039C375.43 151.87 375.211 162.419 379.557 165.957C379.557 165.957 374.916 170.696 365.536 175.916C358.711 171.198 361.736 167.496 361.736 167.496C367.993 165.422 367.414 160.693 365.918 156.325L376.052 146.039Z" fill="#FFC3BD"/>
<path d="M365.372 175.948C365.372 175.948 371.127 169.68 374.108 170.882C377.089 172.083 374.785 174.234 374.523 176.254C374.261 178.274 375.681 183.647 371.695 182.249C367.709 180.852 365.372 175.948 365.372 175.948Z" fill="#18626F"/>
<path d="M365.143 175.817C365.143 175.817 362.424 171.013 359.486 171.657C356.549 172.301 358.296 173.983 358.558 175.796C358.897 178.111 356.451 182.566 359.989 181.256C363.527 179.945 365.143 175.817 365.143 175.817Z" fill="#18626F"/>
<g opacity="0.2">
<path d="M363.636 174.78C363.597 175.749 363.783 176.713 364.182 177.597C364.544 177.033 364.861 176.441 365.132 175.828C364.729 175.144 364.265 174.497 363.745 173.896C363.655 174.181 363.618 174.481 363.636 174.78Z" fill="black"/>
<path d="M367.469 173.917C366.235 175.009 365.383 175.948 365.383 175.948C365.701 176.604 366.066 177.235 366.475 177.838C367.135 177.176 367.524 176.292 367.567 175.359C367.672 174.879 367.638 174.379 367.469 173.917Z" fill="black"/>
</g>
<path d="M365.307 177.914C364.488 177.914 363.986 177.03 363.931 174.922C363.876 172.814 365.493 173.983 365.493 173.983C365.493 173.983 367.677 172.891 367.283 175.413C367 177.412 366.148 177.914 365.307 177.914Z" fill="#18626F"/>
<path opacity="0.2" d="M371.925 150.243L365.929 156.325C366.289 157.338 366.563 158.379 366.748 159.437C369.162 158.881 372.656 156.369 372.689 153.792C372.65 152.572 372.391 151.37 371.925 150.243Z" fill="black"/>
<path d="M366.781 126.328C366.781 126.328 360.229 135.402 359.137 139.432C354.682 142.031 353.786 129.244 356.145 121.359C363.505 125.979 366.781 126.328 366.781 126.328Z" fill="#263238"/>
<path d="M381.184 136.931C378.749 146.246 377.908 150.243 372.208 154.141C363.614 160.016 352.705 154.993 352.301 145.132C351.941 136.265 355.981 122.517 365.951 120.584C368.148 120.138 370.423 120.263 372.558 120.948C374.693 121.632 376.616 122.852 378.145 124.493C379.673 126.133 380.755 128.138 381.287 130.315C381.82 132.493 381.784 134.771 381.184 136.931Z" fill="#FFC3BD"/>
<path d="M386.252 133.208C386.252 133.208 381.567 140.797 380.934 144.128C377.537 146.432 376.107 136.32 377.537 129.932C379.099 124.242 386.252 133.208 386.252 133.208Z" fill="#263238"/>
<path d="M384.384 127.933C383.03 128.96 381.6 125.17 382.943 122.266C380.355 122.43 377.243 120.89 377.909 118.389C372.809 120.104 370.92 114.917 371.51 111.324C372.219 106.956 376.02 106.028 378.258 107.174C378.258 105.22 383.194 101.146 385.072 104.335C388.556 103.101 394.169 103.483 394.048 107.764C396.353 107.83 403.156 110.439 400.6 116.5C403.603 116.675 405.23 120.486 403.56 123.369C404.218 123.717 404.782 124.219 405.206 124.832C405.629 125.445 405.899 126.15 405.992 126.889C406.085 127.628 405.999 128.379 405.741 129.077C405.483 129.776 405.061 130.402 404.51 130.903C405.897 133.786 401.692 138.078 399.454 137.565C397.75 140.175 395.14 142.14 393.437 139.912C390.161 142.326 386.393 139.257 387.234 136.899C383.522 136.331 379.732 130.139 384.384 127.933Z" fill="#263238"/>
<path d="M389.931 118.76C392.378 122.844 392.17 127.496 389.484 129.08C386.797 130.663 382.615 128.698 380.169 124.614C377.723 120.529 377.919 115.878 380.617 114.294C383.314 112.711 387.485 114.687 389.931 118.76Z" fill="#18626F"/>
<path d="M367.218 125.236C367.076 126.404 363.854 126.099 362.926 124.035C361.594 125.433 358.46 126.153 357.39 124.635C355.577 128.042 351.93 127.147 350.991 125.52C350.052 123.893 349.429 120.868 351.318 120.267C350.226 119.328 350.554 114.906 353.415 115.463C354.616 113.104 357.903 110.428 360.305 112.514C361.616 111.422 366.857 109.151 368.976 113.311C369.441 112.994 369.971 112.786 370.528 112.703C371.084 112.62 371.653 112.664 372.19 112.832C372.727 113 373.219 113.288 373.628 113.674C374.038 114.059 374.355 114.533 374.556 115.059C377.952 114.174 379.426 116.751 379.415 118.149C381.829 118.804 381.993 122.976 380.507 123.871C381.086 125.979 380.78 128.239 378.564 128.042C378.138 130.882 374.338 131.318 373.442 129.779C370.974 131.362 365.94 128.61 367.218 125.236Z" fill="#263238"/>
<path d="M361.452 117.177C364.215 113.355 374.294 111.717 383.019 117.494C390.882 122.659 390.368 134.66 384.111 134.016C377.854 133.371 371.673 126.044 371.673 126.044L361.452 117.177Z" fill="#263238"/>
<path d="M381.949 145.34C381.078 146.982 379.595 148.214 377.821 148.769C375.452 149.478 374.229 147.382 374.84 145.121C375.397 143.09 377.286 140.273 379.678 140.557C380.199 140.626 380.695 140.825 381.12 141.135C381.546 141.445 381.887 141.856 382.112 142.331C382.338 142.807 382.441 143.331 382.413 143.856C382.384 144.382 382.225 144.892 381.949 145.34Z" fill="#FFC3BD"/>
<path d="M355.271 229.314C355.271 229.314 341.993 288.064 350.903 329.484C356.844 357.22 378.203 413.251 378.203 413.251L394.955 412.825C394.955 412.825 378.739 354.021 375.386 330.925C369.653 291.373 384.013 226.868 384.013 226.868L355.271 229.314Z" fill="#18626F"/>
<path opacity="0.2" d="M370.581 241.185L378.924 254.387C376.402 270.041 374.801 285.829 374.13 301.67C362.391 280.595 368.004 252.334 370.581 241.185Z" fill="black"/>
<path d="M375.845 414.125L396.527 413.59L395.337 407.245L374.229 408.239L375.845 414.125Z" fill="#263238"/>
<path d="M363.854 228.692C363.854 228.692 371.64 290.991 388.534 325.007C402.173 352.481 438.569 391.618 438.569 391.618L447.873 382.031C447.873 382.031 423.292 339.53 413.158 321.283C388.293 276.511 408.616 242.386 394.518 225.951L363.854 228.692Z" fill="#18626F"/>
<path d="M437.63 392.874L449.642 381.168L445.656 375.741L432.913 388.452L437.63 392.874Z" fill="#263238"/>
<path d="M394.911 223.571L396.986 226.934C397.15 227.185 396.844 227.491 396.396 227.535L355.228 231.094C354.878 231.094 354.573 230.974 354.529 230.756L353.874 227.272C353.819 227.032 354.114 226.803 354.496 226.77L394.245 223.33C394.367 223.307 394.494 223.318 394.611 223.36C394.728 223.402 394.832 223.475 394.911 223.571Z" fill="#18626F"/>
<path opacity="0.5" d="M394.911 223.571L396.986 226.934C397.15 227.185 396.844 227.491 396.396 227.535L355.228 231.094C354.878 231.094 354.573 230.974 354.529 230.756L353.874 227.272C353.819 227.032 354.114 226.803 354.496 226.77L394.245 223.33C394.367 223.307 394.494 223.318 394.611 223.36C394.728 223.402 394.832 223.475 394.911 223.571Z" fill="white"/>
<path d="M389.953 228.474L391.045 228.386C391.253 228.386 391.406 228.244 391.384 228.113L390.488 223.592C390.488 223.45 390.27 223.363 390.052 223.385L388.96 223.472C388.741 223.472 388.588 223.614 388.621 223.745L389.517 228.266C389.549 228.397 389.746 228.495 389.953 228.474Z" fill="#18626F"/>
<path d="M358.253 231.215L359.345 231.127C359.552 231.127 359.705 230.985 359.683 230.854L358.788 226.333C358.748 226.255 358.684 226.192 358.605 226.154C358.526 226.117 358.436 226.107 358.351 226.126L357.259 226.213C357.041 226.213 356.888 226.355 356.92 226.486L357.816 231.007C357.849 231.16 358.045 231.236 358.253 231.215Z" fill="#18626F"/>
<path d="M374.108 229.85L375.2 229.751C375.419 229.751 375.572 229.609 375.539 229.478L374.643 224.957C374.643 224.826 374.425 224.728 374.218 224.75L373.126 224.848C372.918 224.848 372.765 224.99 372.787 225.121L373.682 229.642C373.704 229.773 373.89 229.86 374.108 229.85Z" fill="#18626F"/>
<path d="M365.416 136.615C365.263 137.379 364.739 137.925 364.237 137.827C363.734 137.728 363.45 137.019 363.592 136.254C363.734 135.49 364.28 134.944 364.783 135.042C365.285 135.14 365.569 135.839 365.416 136.615Z" fill="#263238"/>
<path d="M356.722 134.899C356.874 134.129 356.588 133.426 356.085 133.327C355.582 133.228 355.052 133.771 354.901 134.541C354.75 135.31 355.035 136.014 355.538 136.113C356.041 136.211 356.571 135.668 356.722 134.899Z" fill="#263238"/>
<path d="M356.32 133.426L354.573 132.531C354.573 132.531 355.239 134.158 356.32 133.426Z" fill="#263238"/>
<path d="M359.716 136.822C358.693 138.441 357.451 139.911 356.025 141.19C356.356 141.555 356.764 141.842 357.219 142.031C357.674 142.219 358.165 142.305 358.657 142.282L359.716 136.822Z" fill="#ED847E"/>
<path d="M362.206 145.886C363.819 145.903 365.379 145.31 366.574 144.226C366.597 144.209 366.616 144.186 366.629 144.161C366.643 144.136 366.651 144.107 366.652 144.079C366.654 144.05 366.649 144.021 366.638 143.994C366.627 143.967 366.611 143.943 366.589 143.924C366.568 143.904 366.543 143.889 366.515 143.881C366.488 143.872 366.459 143.87 366.43 143.873C366.402 143.877 366.374 143.887 366.35 143.903C366.325 143.919 366.305 143.939 366.29 143.964C365.555 144.612 364.677 145.077 363.728 145.322C362.779 145.567 361.786 145.584 360.83 145.372C360.805 145.368 360.78 145.368 360.756 145.373C360.731 145.378 360.708 145.388 360.688 145.403C360.668 145.417 360.65 145.435 360.637 145.456C360.624 145.477 360.615 145.501 360.611 145.525C360.605 145.55 360.604 145.576 360.608 145.6C360.613 145.625 360.622 145.649 360.637 145.67C360.652 145.691 360.67 145.708 360.692 145.721C360.714 145.734 360.739 145.741 360.764 145.744C361.238 145.843 361.721 145.891 362.206 145.886Z" fill="#263238"/>
<path d="M370.625 133.633C370.694 133.632 370.762 133.614 370.822 133.579C370.908 133.527 370.971 133.442 370.996 133.344C371.02 133.246 371.005 133.142 370.953 133.055C370.591 132.441 370.089 131.923 369.487 131.543C368.884 131.163 368.2 130.932 367.491 130.871C367.441 130.869 367.391 130.878 367.344 130.896C367.297 130.913 367.254 130.94 367.217 130.975C367.181 131.009 367.152 131.051 367.131 131.097C367.111 131.142 367.099 131.192 367.098 131.242C367.096 131.292 367.105 131.342 367.123 131.389C367.141 131.436 367.168 131.479 367.202 131.515C367.236 131.552 367.278 131.581 367.324 131.602C367.369 131.622 367.419 131.634 367.469 131.635C368.055 131.7 368.617 131.903 369.109 132.227C369.601 132.552 370.008 132.989 370.297 133.502C370.337 133.549 370.388 133.585 370.445 133.608C370.502 133.631 370.564 133.64 370.625 133.633Z" fill="#263238"/>
<path d="M354.332 130.554C354.393 130.568 354.457 130.568 354.518 130.554C355.025 130.254 355.596 130.078 356.184 130.04C356.773 130.002 357.361 130.103 357.903 130.336C357.992 130.373 358.091 130.375 358.181 130.342C358.271 130.309 358.346 130.244 358.39 130.158C358.434 130.073 358.444 129.974 358.419 129.882C358.393 129.789 358.334 129.709 358.253 129.659C357.599 129.362 356.883 129.228 356.166 129.268C355.449 129.308 354.753 129.521 354.136 129.888C354.05 129.938 353.987 130.02 353.961 130.116C353.934 130.212 353.946 130.314 353.994 130.401C354.031 130.455 354.082 130.498 354.142 130.525C354.201 130.551 354.267 130.562 354.332 130.554Z" fill="#263238"/>
<path d="M398.078 175.643C398.82 176.363 399.333 176.931 399.912 177.576C400.491 178.22 401.004 178.853 401.528 179.497C402.566 180.797 403.56 182.129 404.488 183.494C406.334 186.246 407.969 189.134 409.38 192.132C410.788 195.144 411.924 198.276 412.776 201.49C413.202 203.096 413.584 204.766 413.868 206.372C414.41 208.691 414.144 211.125 413.115 213.273C412.515 214.401 411.686 215.391 410.679 216.178C409.807 216.849 408.848 217.4 407.829 217.816C406.076 218.492 404.239 218.925 402.369 219.104C399.051 219.423 395.708 219.379 392.399 218.973C386.065 218.237 379.813 216.91 373.726 215.009L374.731 211.045C377.701 211.537 380.759 211.995 383.772 212.312C386.786 212.629 389.822 212.913 392.803 212.978C395.691 213.082 398.583 212.921 401.441 212.498C402.672 212.297 403.87 211.93 405.001 211.406C405.694 211.143 406.266 210.634 406.606 209.975C406.698 209.723 406.742 209.457 406.737 209.189C406.752 208.993 406.752 208.796 406.737 208.599C406.737 208.381 406.661 208.184 406.563 207.78C406.257 206.372 405.853 204.985 405.416 203.609C404.527 200.865 403.432 198.193 402.14 195.615C400.842 193.022 399.353 190.529 397.685 188.157C396.866 186.956 396.003 185.787 395.107 184.663C394.66 184.095 394.19 183.571 393.732 183.014C393.273 182.457 392.749 181.922 392.388 181.529L398.078 175.643Z" fill="#FFC3BD"/>
<path d="M377.231 211.646L369.587 207.595L369.238 217.717C369.238 217.717 374.698 218.067 377.821 215.533L377.231 211.646Z" fill="#FFC3BD"/>
<path d="M363.822 266.104L370.134 197.515L356.647 187.185L315.479 183.396L308.326 260.993L363.822 266.104Z" fill="#18626F"/>
<path opacity="0.8" d="M363.822 266.104L370.134 197.515L356.647 187.185L315.479 183.396L308.326 260.993L363.822 266.104Z" fill="white"/>
<path d="M370.133 197.515L356.647 187.185L360.185 199.547L370.133 197.515Z" fill="#18626F"/>
<path d="M313.153 272.984C322.441 272.984 329.97 265.454 329.97 256.167C329.97 246.879 322.441 239.35 313.153 239.35C303.865 239.35 296.336 246.879 296.336 256.167C296.336 265.454 303.865 272.984 313.153 272.984Z" fill="#18626F"/>
<path d="M321.462 266.677C327.273 262.086 328.262 253.653 323.671 247.842C319.08 242.031 310.647 241.042 304.836 245.633C299.024 250.224 298.035 258.657 302.626 264.468C307.218 270.279 315.65 271.268 321.462 266.677Z" fill="white"/>
<path d="M321.441 254.987L315.523 254.299L316.211 248.381L311.974 247.878L311.286 253.797L305.367 253.098L304.865 257.346L310.783 258.045L310.085 263.953L314.332 264.455L315.02 258.536L320.939 259.235L321.441 254.987Z" fill="#18626F"/>
<path opacity="0.4" d="M360.065 211.733C360.011 212.334 359.838 212.917 359.557 213.451C359.277 213.984 358.894 214.457 358.43 214.843C357.967 215.228 357.432 215.518 356.856 215.697C356.28 215.875 355.675 215.939 355.075 215.883L325.045 213.12C323.834 213.007 322.717 212.418 321.939 211.482C321.161 210.547 320.786 209.341 320.895 208.13C320.95 207.529 321.123 206.946 321.403 206.412C321.684 205.879 322.067 205.406 322.53 205.02C322.994 204.635 323.529 204.345 324.105 204.166C324.68 203.988 325.286 203.925 325.886 203.98L355.916 206.743C356.516 206.798 357.1 206.97 357.633 207.251C358.167 207.531 358.64 207.914 359.025 208.378C359.41 208.841 359.701 209.376 359.879 209.952C360.058 210.528 360.121 211.133 360.065 211.733Z" fill="#18626F"/>
<path opacity="0.4" d="M349.833 224.128C349.778 224.728 349.606 225.311 349.325 225.845C349.045 226.378 348.662 226.851 348.198 227.237C347.735 227.622 347.2 227.912 346.624 228.091C346.048 228.269 345.443 228.333 344.843 228.277L323.854 226.344C323.254 226.289 322.671 226.117 322.137 225.836C321.604 225.556 321.131 225.173 320.745 224.709C320.36 224.246 320.07 223.711 319.891 223.135C319.713 222.559 319.649 221.954 319.705 221.354C319.76 220.754 319.932 220.17 320.213 219.636C320.493 219.103 320.876 218.63 321.34 218.245C321.803 217.859 322.338 217.569 322.914 217.39C323.49 217.212 324.095 217.149 324.695 217.204L345.684 219.148C346.893 219.262 348.008 219.849 348.785 220.782C349.563 221.715 349.939 222.918 349.833 224.128Z" fill="#18626F"/>
<path d="M364.914 208.195L366.06 215.763L369.227 217.717L369.577 207.595L364.914 208.195Z" fill="#FFC3BD"/>
<path d="M396.396 166.732C401.212 167.584 407.96 181.387 407.96 181.387L395.828 192.307C395.828 192.307 386.175 181.78 386.688 175.512C387.136 170.215 390.281 165.64 396.396 166.732Z" fill="#263238"/>
<path d="M444.75 402.058C444.876 402.056 445 402.038 445.121 402.003C446.279 401.61 447.032 399.481 447.382 398.247C447.389 398.211 447.387 398.174 447.375 398.14C447.364 398.105 447.343 398.074 447.316 398.05C447.287 398.026 447.25 398.013 447.212 398.013C447.175 398.013 447.138 398.026 447.109 398.05C446.759 398.225 443.68 399.874 443.582 401.086C443.567 401.218 443.59 401.352 443.648 401.472C443.706 401.591 443.797 401.692 443.909 401.763C444.147 401.955 444.444 402.059 444.75 402.058ZM446.934 398.585C446.399 400.289 445.711 401.414 445.056 401.632C444.907 401.678 444.749 401.684 444.598 401.649C444.447 401.615 444.307 401.541 444.193 401.436C444.134 401.402 444.087 401.352 444.055 401.292C444.024 401.232 444.012 401.164 444.018 401.097C444.018 400.354 445.82 399.186 446.879 398.585H446.934Z" fill="#18626F"/>
<path d="M444.269 399.066C445.318 399.061 446.353 398.818 447.294 398.356C447.321 398.338 447.343 398.314 447.358 398.285C447.374 398.257 447.382 398.225 447.382 398.192C447.383 398.158 447.374 398.125 447.357 398.096C447.339 398.067 447.314 398.043 447.283 398.029C447.185 397.974 444.75 396.631 443.439 397.1C443.274 397.149 443.123 397.235 442.998 397.353C442.873 397.47 442.777 397.616 442.719 397.777C442.637 397.93 442.61 398.107 442.641 398.278C442.673 398.448 442.762 398.603 442.893 398.717C443.3 398.983 443.785 399.106 444.269 399.066ZM446.77 398.192C445.733 398.64 443.712 398.913 443.145 398.433C443.046 398.345 442.948 398.214 443.079 397.919C443.118 397.811 443.182 397.713 443.265 397.633C443.349 397.554 443.449 397.495 443.56 397.461C444.444 397.144 446.082 397.854 446.77 398.236V398.192Z" fill="#18626F"/>
<path d="M380.813 426.355C381.869 426.33 382.92 426.194 383.947 425.951C383.983 425.938 384.014 425.914 384.036 425.883C384.058 425.852 384.07 425.814 384.07 425.776C384.07 425.738 384.058 425.701 384.036 425.669C384.014 425.638 383.983 425.614 383.947 425.602C383.478 425.372 379.295 423.418 378.247 424.16C378.151 424.223 378.074 424.311 378.026 424.416C377.978 424.52 377.96 424.636 377.974 424.75C377.977 424.964 378.029 425.174 378.128 425.363C378.227 425.553 378.368 425.717 378.542 425.842C379.225 426.251 380.021 426.43 380.813 426.355ZM383.292 425.7C382.058 425.929 379.765 426.235 378.815 425.525C378.693 425.429 378.593 425.309 378.522 425.171C378.45 425.034 378.409 424.883 378.4 424.728C378.39 424.68 378.396 424.63 378.415 424.585C378.435 424.54 378.468 424.503 378.509 424.477C379.088 424.073 381.556 424.935 383.292 425.7Z" fill="#18626F"/>
<path d="M383.904 425.962C383.946 425.975 383.992 425.975 384.035 425.962C384.062 425.938 384.082 425.907 384.091 425.872C384.101 425.837 384.1 425.8 384.089 425.765C384.089 425.591 383.106 421.474 380.813 421.736C380.245 421.812 380.082 422.085 380.06 422.315C379.918 423.407 382.549 425.471 383.805 425.995L383.904 425.962ZM381.043 422.063C382.495 422.063 383.336 424.466 383.62 425.427C382.255 424.706 380.344 422.992 380.464 422.326C380.464 422.271 380.464 422.118 380.89 422.074L381.043 422.063Z" fill="#18626F"/>
<path d="M364.99 135.13L363.254 134.234C363.254 134.234 363.92 135.861 364.99 135.13Z" fill="#263238"/>
</svg>
