<svg width="437" height="468" viewBox="0 0 437 468" fill="none" xmlns="http://www.w3.org/2000/svg">
<path d="M404.461 334.788C434.57 258.439 438.381 150.537 386.492 83.5193C357.868 46.5473 312.831 34.2576 269.839 31.5151C231.304 29.016 190.069 30.0362 155.056 49.608C95.7292 82.6582 94.2609 161.357 49.818 207.792C13.984 245.232 -0.873988 298.584 29.716 368.784C60.306 438.984 117.116 454.896 173.052 432.432C228.988 409.968 254.334 405.288 321.632 416.52C352.563 421.687 375.007 396.864 388.58 370.048C394.392 358.563 399.733 346.788 404.461 334.788Z" fill="#18626F"/>
<path opacity="0.7" d="M404.461 334.788C434.57 258.439 438.381 150.537 386.492 83.5193C357.868 46.5473 312.831 34.2576 269.839 31.5151C231.304 29.016 190.069 30.0362 155.056 49.608C95.7292 82.6582 94.2609 161.357 49.818 207.792C13.984 245.232 -0.873988 298.584 29.716 368.784C60.306 438.984 117.116 454.896 173.052 432.432C228.988 409.968 254.334 405.288 321.632 416.52C352.563 421.687 375.007 396.864 388.58 370.048C394.392 358.563 399.733 346.788 404.461 334.788Z" fill="white"/>
<path d="M385.434 408.096H71.668L72.035 131.48C72.035 128.816 73.0231 126.262 74.7818 124.378C76.5405 122.495 78.9259 121.437 81.4131 121.437H376.423C377.655 121.435 378.875 121.694 380.013 122.199C381.152 122.703 382.186 123.443 383.057 124.376C383.928 125.308 384.619 126.416 385.09 127.635C385.56 128.854 385.802 130.161 385.801 131.48L385.434 408.096Z" fill="white" stroke="#263238" stroke-linecap="round" stroke-linejoin="round"/>
<path d="M157.949 146.016H113.401V155.835H157.949V146.016Z" stroke="#263238" stroke-linecap="round" stroke-linejoin="round"/>
<path d="M293 159.391H374.238" stroke="#263238" stroke-linecap="round" stroke-linejoin="round"/>
<path d="M89.4541 159.391H288.263" stroke="#263238" stroke-linecap="round" stroke-linejoin="round"/>
<path d="M376.423 121.437H81.4132C78.926 121.437 76.5406 122.495 74.7819 124.378C73.0232 126.262 72.0352 128.816 72.0352 131.48V139.127H385.801V131.48C385.802 130.161 385.561 128.854 385.09 127.635C384.619 126.416 383.928 125.308 383.057 124.376C382.186 123.443 381.152 122.703 380.013 122.199C378.875 121.694 377.655 121.435 376.423 121.437Z" fill="#263238" stroke="#263238" stroke-linecap="round" stroke-linejoin="round"/>
<path d="M89.1479 131.255C89.1479 130.655 88.9818 130.069 88.6707 129.57C88.3595 129.072 87.9172 128.683 87.3998 128.453C86.8824 128.224 86.313 128.164 85.7637 128.281C85.2144 128.398 84.7098 128.687 84.3138 129.111C83.9178 129.535 83.6481 130.075 83.5388 130.664C83.4295 131.252 83.4856 131.862 83.6999 132.416C83.9143 132.97 84.2772 133.444 84.7429 133.777C85.2086 134.11 85.7561 134.288 86.3161 134.288C87.0672 134.288 87.7874 133.968 88.3185 133.4C88.8496 132.831 89.1479 132.06 89.1479 131.255Z" fill="white" stroke="#263238" stroke-linecap="round" stroke-linejoin="round"/>
<path d="M100.449 131.255C100.449 130.655 100.283 130.069 99.9714 129.57C99.6603 129.072 99.218 128.683 98.7006 128.453C98.1831 128.224 97.6138 128.164 97.0645 128.281C96.5152 128.398 96.0106 128.687 95.6146 129.111C95.2185 129.535 94.9488 130.075 94.8396 130.664C94.7303 131.252 94.7864 131.862 95.0007 132.416C95.215 132.97 95.578 133.444 96.0437 133.777C96.5094 134.11 97.0569 134.288 97.6169 134.288C98.368 134.288 99.0882 133.968 99.6193 133.4C100.15 132.831 100.449 132.06 100.449 131.255Z" fill="white" stroke="#263238" stroke-linecap="round" stroke-linejoin="round"/>
<path d="M108.935 134.288C110.499 134.288 111.767 132.93 111.767 131.255C111.767 129.58 110.499 128.223 108.935 128.223C107.371 128.223 106.104 129.58 106.104 131.255C106.104 132.93 107.371 134.288 108.935 134.288Z" fill="white" stroke="#263238" stroke-linecap="round" stroke-linejoin="round"/>
<path d="M90.1445 146.596H103.569" stroke="#263238" stroke-linecap="round" stroke-linejoin="round"/>
<path d="M90.1445 150.462H103.569" stroke="#263238" stroke-linecap="round" stroke-linejoin="round"/>
<path d="M90.1445 154.318H103.569" stroke="#263238" stroke-linecap="round" stroke-linejoin="round"/>
<path d="M92.6439 180.704V168.312H90.2754V166.917H96.4546V168.312H94.0773V180.704H92.6439Z" fill="#263238"/>
<path d="M98.1851 177.924L97.6869 180.732H96.3584L98.8231 166.945H100.903L103.368 180.732H101.935L101.436 177.924H98.1851ZM98.3686 176.604H101.235L99.7845 168.648L98.3686 176.604Z" fill="#263238"/>
<path d="M110.063 170.221V170.595H108.699V170.146C108.699 168.901 108.262 168.171 107.231 168.171C106.2 168.171 105.763 168.901 105.763 170.127C105.763 173.216 110.08 173.516 110.08 177.391C110.08 179.478 109.145 180.835 107.179 180.835C105.212 180.835 104.286 179.478 104.286 177.391V176.604H105.632V177.475C105.632 178.71 106.112 179.441 107.144 179.441C108.175 179.441 108.647 178.71 108.647 177.475C108.647 174.396 104.347 174.105 104.347 170.221C104.347 168.096 105.221 166.776 107.196 166.776C109.171 166.776 110.063 168.134 110.063 170.221Z" fill="#263238"/>
<path d="M113.524 174.714L112.763 176.071V180.704H111.33V166.917H112.746V173.572L116.172 166.917H117.623L114.389 173.16L117.754 180.648H116.242L113.524 174.714Z" fill="#263238"/>
<path d="M124.335 170.221V170.595H122.972V170.146C122.972 168.901 122.535 168.171 121.503 168.171C120.472 168.171 120.035 168.901 120.035 170.127C120.035 173.216 124.353 173.516 124.353 177.391C124.353 179.478 123.418 180.835 121.451 180.835C119.485 180.835 118.558 179.478 118.558 177.391V176.604H119.904V177.475C119.904 178.71 120.385 179.441 121.416 179.441C122.447 179.441 122.919 178.71 122.919 177.475C122.919 174.396 118.619 174.105 118.619 170.221C118.619 168.096 119.537 166.776 121.469 166.776C123.4 166.776 124.335 168.134 124.335 170.221Z" fill="#263238"/>
<path d="M287.118 258.102H89.6724V314.599H287.118V258.102Z" fill="white" stroke="#263238" stroke-linecap="round" stroke-linejoin="round"/>
<path d="M241.818 272.844C242.692 272.844 243.051 273.387 243.051 274.276V274.987C243.051 275.923 242.64 276.41 241.775 276.41H241.224V278.741H240.612V272.844H241.818ZM241.775 275.82C242.229 275.82 242.448 275.596 242.448 275.034V274.248C242.448 273.705 242.264 273.434 241.818 273.434H241.224V275.82H241.775Z" fill="#263238"/>
<path d="M244.72 272.844C245.594 272.844 245.953 273.312 245.953 274.192V274.669C245.989 274.925 245.94 275.187 245.816 275.409C245.692 275.631 245.499 275.8 245.271 275.886C245.769 276.045 245.961 276.476 245.961 277.112V278.048C245.945 278.291 245.981 278.534 246.066 278.76H245.446C245.363 278.53 245.33 278.284 245.349 278.039V277.103C245.349 276.438 245.052 276.232 244.545 276.232H244.108V278.75H243.497V272.853L244.72 272.844ZM244.572 275.652C245.052 275.652 245.349 275.484 245.349 274.838V274.248C245.349 273.714 245.166 273.434 244.711 273.434H244.108V275.624L244.572 275.652Z" fill="#263238"/>
<path d="M246.582 274.248C246.582 273.312 247.001 272.76 247.84 272.76C248.679 272.76 249.107 273.34 249.107 274.248V277.299C249.122 277.486 249.1 277.675 249.043 277.852C248.986 278.03 248.896 278.193 248.777 278.331C248.658 278.469 248.514 278.579 248.354 278.655C248.193 278.73 248.02 278.769 247.844 278.769C247.669 278.769 247.496 278.73 247.335 278.655C247.175 278.579 247.031 278.469 246.912 278.331C246.793 278.193 246.703 278.03 246.646 277.852C246.589 277.675 246.567 277.486 246.582 277.299V274.248ZM247.193 277.327C247.193 277.87 247.403 278.179 247.84 278.179C248.277 278.179 248.496 277.87 248.496 277.327V274.248C248.496 273.714 248.295 273.396 247.84 273.396C247.386 273.396 247.193 273.714 247.193 274.248V277.327Z" fill="#263238"/>
<path d="M252.123 274.248V274.753H251.537V274.248C251.537 273.714 251.345 273.396 250.89 273.396C250.436 273.396 250.252 273.714 250.252 274.248V277.365C250.252 277.898 250.453 278.217 250.89 278.217C251.327 278.217 251.537 277.898 251.537 277.365V276.186H250.969V275.596H252.123V277.337C252.123 278.273 251.729 278.816 250.882 278.816C250.034 278.816 249.641 278.226 249.641 277.337V274.248C249.641 273.312 250.034 272.76 250.882 272.76C251.729 272.76 252.123 273.368 252.123 274.248Z" fill="#263238"/>
<path d="M253.932 272.844C254.806 272.844 255.156 273.312 255.156 274.192V274.669C255.192 274.925 255.144 275.187 255.019 275.409C254.895 275.631 254.702 275.8 254.474 275.886C254.981 276.045 255.164 276.476 255.164 277.112V278.048C255.146 278.292 255.185 278.536 255.278 278.76H254.657C254.571 278.531 254.535 278.284 254.553 278.039V277.103C254.553 276.438 254.264 276.232 253.748 276.232H253.32V278.75H252.7V272.853L253.932 272.844ZM253.775 275.652C254.264 275.652 254.553 275.484 254.553 274.838V274.248C254.553 273.714 254.369 273.434 253.915 273.434H253.32V275.624L253.775 275.652Z" fill="#263238"/>
<path d="M257.76 275.455V276.045H256.414V278.142H258.066V278.741H255.802V272.844H258.066V273.434H256.414V275.455H257.76Z" fill="#263238"/>
<path d="M261.02 274.248V274.407H260.452V274.248C260.452 273.714 260.268 273.406 259.823 273.406C259.377 273.406 259.193 273.714 259.193 274.239C259.193 275.568 261.046 275.689 261.046 277.346C261.046 278.282 260.644 278.825 259.796 278.825C258.949 278.825 258.564 278.245 258.564 277.346V277.009H259.141V277.384C259.141 277.917 259.342 278.226 259.788 278.226C260.233 278.226 260.426 277.917 260.426 277.384C260.426 276.073 258.59 275.942 258.59 274.285C258.59 273.349 258.983 272.807 259.805 272.807C260.627 272.807 261.02 273.359 261.02 274.248Z" fill="#263238"/>
<path d="M263.948 274.248V274.407H263.362V274.248C263.362 273.714 263.17 273.406 262.733 273.406C262.296 273.406 262.104 273.714 262.104 274.239C262.104 275.568 263.948 275.689 263.948 277.346C263.948 278.282 263.555 278.825 262.707 278.825C261.859 278.825 261.475 278.245 261.475 277.346V277.009H262.051V277.384C262.051 277.917 262.252 278.226 262.689 278.226C263.126 278.226 263.336 277.917 263.336 277.384C263.336 276.073 261.501 275.942 261.501 274.285C261.501 273.349 261.894 272.807 262.716 272.807C263.537 272.807 263.948 273.359 263.948 274.248Z" fill="#263238"/>
<path d="M202.357 272.844C203.231 272.844 203.607 273.396 203.607 274.304V277.281C203.607 278.217 203.214 278.741 202.357 278.741H201.063V272.844H202.357ZM202.357 278.142C202.794 278.142 203.012 277.842 203.012 277.309V274.248C203.012 273.705 202.794 273.406 202.348 273.406H201.684V278.086L202.357 278.142Z" fill="#263238"/>
<path d="M206.141 275.455V276.045H204.795V278.142H206.447V278.741H204.184V272.844H206.447V273.434H204.795V275.455H206.141Z" fill="#263238"/>
<path d="M207.636 277.552L207.418 278.741H206.858L207.907 272.844H208.781L209.839 278.741H209.218L209.008 277.552H207.636ZM207.715 276.981H208.939L208.318 273.583L207.715 276.981Z" fill="#263238"/>
<path d="M211.622 272.844C212.496 272.844 212.871 273.396 212.871 274.304V277.281C212.871 278.217 212.478 278.741 211.622 278.741H210.328V272.844H211.622ZM211.622 278.142C212.067 278.142 212.277 277.842 212.277 277.309V274.248C212.277 273.705 212.067 273.406 211.613 273.406H210.957V278.086L211.622 278.142Z" fill="#263238"/>
<path d="M213.448 278.741V272.844H214.06V278.142H215.633V278.741H213.448Z" fill="#263238"/>
<path d="M216.752 272.844V278.741H216.14V272.844H216.752Z" fill="#263238"/>
<path d="M217.879 278.741H217.329V272.844H218.106L219.383 277.103V272.844H219.924V278.741H219.295L217.879 273.967V278.741Z" fill="#263238"/>
<path d="M222.52 275.455V276.045H221.174V278.142H222.87V278.741H220.598V272.844H222.87V273.434H221.218V275.455H222.52Z" fill="#263238"/>
<path d="M166.156 279.583H177.658" stroke="#263238" stroke-linecap="round" stroke-linejoin="round"/>
<path d="M131.668 279.583H162.022" stroke="#263238" stroke-linecap="round" stroke-linejoin="round"/>
<path d="M99.4526 279.583H127.071" stroke="#263238" stroke-linecap="round" stroke-linejoin="round"/>
<path d="M149.148 293.586H157.932" stroke="#263238" stroke-linecap="round" stroke-linejoin="round"/>
<path d="M126.607 293.586H141.789" stroke="#263238" stroke-linecap="round" stroke-linejoin="round"/>
<path d="M115.578 293.586H122.01" stroke="#263238" stroke-linecap="round" stroke-linejoin="round"/>
<path d="M99.4526 293.586H111.898" stroke="#263238" stroke-linecap="round" stroke-linejoin="round"/>
<path d="M279.802 290.974C279.8 292.145 279.365 293.268 278.592 294.096C277.818 294.924 276.77 295.39 275.677 295.392H232.37C231.275 295.392 230.225 294.927 229.45 294.099C228.675 293.271 228.239 292.147 228.236 290.974C228.241 289.802 228.678 288.678 229.452 287.849C230.226 287.02 231.275 286.552 232.37 286.547H275.677C276.22 286.547 276.757 286.662 277.258 286.884C277.759 287.107 278.214 287.433 278.597 287.844C278.98 288.256 279.284 288.744 279.491 289.281C279.698 289.818 279.803 290.393 279.802 290.974Z" fill="white" stroke="#263238" stroke-linecap="round" stroke-linejoin="round"/>
<path d="M266.893 286.547V295.392H232.37C231.275 295.392 230.225 294.927 229.45 294.099C228.675 293.271 228.239 292.147 228.236 290.974C228.241 289.802 228.678 288.678 229.452 287.849C230.226 287.02 231.275 286.552 232.37 286.547H266.893Z" fill="#18626F" stroke="#263238" stroke-linecap="round" stroke-linejoin="round"/>
<path d="M220.038 286.547H202.943C200.664 286.547 198.817 288.525 198.817 290.965V290.974C198.817 293.414 200.664 295.392 202.943 295.392H220.038C222.316 295.392 224.163 293.414 224.163 290.974V290.965C224.163 288.525 222.316 286.547 220.038 286.547Z" fill="white" stroke="#263238" stroke-linecap="round" stroke-linejoin="round"/>
<path d="M287.118 330.183H89.6724V386.68H287.118V330.183Z" fill="white" stroke="#263238" stroke-linecap="round" stroke-linejoin="round"/>
<path d="M241.818 346.114C242.692 346.114 243.051 346.657 243.051 347.556V348.258C243.051 349.194 242.64 349.69 241.775 349.69H241.224V352.011H240.612V346.114H241.818ZM241.775 349.1C242.229 349.1 242.448 348.866 242.448 348.304V347.518C242.448 346.985 242.264 346.713 241.818 346.713H241.224V349.128L241.775 349.1Z" fill="#263238"/>
<path d="M244.72 346.114C245.594 346.114 245.953 346.582 245.953 347.462V347.939C245.953 348.594 245.743 348.997 245.271 349.156C245.769 349.315 245.961 349.755 245.961 350.382V351.318C245.944 351.561 245.98 351.804 246.066 352.03H245.446C245.362 351.804 245.329 351.56 245.349 351.318V350.382C245.349 349.708 245.052 349.502 244.545 349.502H244.108V352.02H243.497V346.123L244.72 346.114ZM244.572 348.922C245.052 348.922 245.349 348.754 245.349 348.117V347.546C245.349 347.022 245.166 346.741 244.711 346.741H244.108V348.922H244.572Z" fill="#263238"/>
<path d="M246.582 347.537C246.582 346.601 247.001 346.058 247.84 346.058C248.679 346.058 249.107 346.638 249.107 347.537V350.588C249.122 350.775 249.1 350.964 249.043 351.141C248.986 351.319 248.896 351.482 248.777 351.62C248.658 351.758 248.514 351.868 248.354 351.944C248.193 352.019 248.02 352.058 247.844 352.058C247.669 352.058 247.496 352.019 247.335 351.944C247.175 351.868 247.031 351.758 246.912 351.62C246.793 351.482 246.703 351.319 246.646 351.141C246.589 350.964 246.567 350.775 246.582 350.588V347.537ZM247.193 350.626C247.193 351.159 247.403 351.468 247.84 351.468C248.277 351.468 248.496 351.159 248.496 350.626V347.499C248.496 346.975 248.295 346.657 247.84 346.657C247.386 346.657 247.193 346.975 247.193 347.499V350.626Z" fill="#263238"/>
<path d="M252.123 347.537V348.042H251.537V347.499C251.537 346.975 251.345 346.657 250.89 346.657C250.436 346.657 250.252 346.975 250.252 347.499V350.626C250.252 351.15 250.453 351.468 250.89 351.468C251.327 351.468 251.537 351.15 251.537 350.626V349.446H250.969V348.857H252.123V350.588C252.123 351.477 251.729 352.067 250.882 352.067C250.034 352.067 249.641 351.477 249.641 350.588V347.537C249.641 346.648 250.034 346.058 250.882 346.058C251.729 346.058 252.123 346.648 252.123 347.537Z" fill="#263238"/>
<path d="M253.932 346.114C254.806 346.114 255.156 346.582 255.156 347.462V347.939C255.156 348.594 254.946 348.997 254.474 349.156C254.981 349.315 255.164 349.755 255.164 350.382V351.318C255.145 351.562 255.184 351.807 255.278 352.03H254.657C254.57 351.805 254.534 351.561 254.553 351.318V350.382C254.553 349.708 254.264 349.502 253.748 349.502H253.32V352.02H252.7V346.123L253.932 346.114ZM253.775 348.922C254.264 348.922 254.553 348.754 254.553 348.117V347.546C254.553 347.022 254.369 346.741 253.915 346.741H253.32V348.922H253.775Z" fill="#263238"/>
<path d="M257.76 348.726V349.315H256.414V351.412H258.066V352.011H255.802V346.114H258.066V346.713H256.414V348.726H257.76Z" fill="#263238"/>
<path d="M261.02 347.527V347.687H260.452V347.499C260.452 346.966 260.268 346.657 259.823 346.657C259.377 346.657 259.193 346.966 259.193 347.49C259.193 348.81 261.046 348.931 261.046 350.598C261.046 351.487 260.644 352.067 259.796 352.067C258.949 352.067 258.564 351.487 258.564 350.598V350.261H259.141V350.626C259.141 351.159 259.342 351.468 259.788 351.468C260.233 351.468 260.426 351.159 260.426 350.626C260.426 349.315 258.59 349.184 258.59 347.527C258.59 346.591 258.983 346.058 259.805 346.058C260.627 346.058 261.02 346.638 261.02 347.527Z" fill="#263238"/>
<path d="M263.948 347.527V347.687H263.362V347.499C263.362 346.966 263.17 346.657 262.733 346.657C262.296 346.657 262.104 346.966 262.104 347.49C262.104 348.81 263.948 348.931 263.948 350.598C263.948 351.487 263.555 352.067 262.707 352.067C261.859 352.067 261.475 351.487 261.475 350.598V350.261H262.051V350.626C262.051 351.159 262.252 351.468 262.689 351.468C263.126 351.468 263.336 351.159 263.336 350.626C263.336 349.315 261.501 349.184 261.501 347.527C261.501 346.591 261.894 346.058 262.716 346.058C263.537 346.058 263.948 346.638 263.948 347.527Z" fill="#263238"/>
<path d="M202.357 346.114C203.231 346.114 203.607 346.666 203.607 347.584V350.551C203.607 351.487 203.214 352.011 202.357 352.011H201.063V346.114H202.357ZM202.357 351.412C202.794 351.412 203.012 351.122 203.012 350.579V347.546C203.012 347.003 202.794 346.713 202.348 346.713H201.684V351.393L202.357 351.412Z" fill="#263238"/>
<path d="M206.141 348.726V349.315H204.795V351.412H206.447V352.011H204.184V346.114H206.447V346.713H204.795V348.726H206.141Z" fill="#263238"/>
<path d="M207.636 350.822L207.418 352.011H206.858L207.907 346.114H208.781L209.839 352.011H209.218L209.008 350.822H207.636ZM207.715 350.261H208.939L208.318 346.854L207.715 350.261Z" fill="#263238"/>
<path d="M211.622 346.114C212.496 346.114 212.871 346.666 212.871 347.584V350.551C212.871 351.487 212.478 352.011 211.622 352.011H210.328V346.114H211.622ZM211.622 351.412C212.067 351.412 212.277 351.122 212.277 350.579V347.546C212.277 347.003 212.067 346.713 211.613 346.713H210.957V351.393L211.622 351.412Z" fill="#263238"/>
<path d="M213.448 352.011V346.114H214.06V351.412H215.633V352.011H213.448Z" fill="#263238"/>
<path d="M216.752 346.114V352.011H216.14V346.114H216.752Z" fill="#263238"/>
<path d="M217.879 352.011H217.329V346.114H218.106L219.383 350.373V346.114H219.924V352.011H219.295L217.879 347.256V352.011Z" fill="#263238"/>
<path d="M222.52 348.726V349.315H221.174V351.412H222.87V352.011H220.598V346.114H222.87V346.713H221.218V348.726H222.52Z" fill="#263238"/>
<path d="M166.156 352.853H177.658" stroke="#263238" stroke-linecap="round" stroke-linejoin="round"/>
<path d="M131.668 352.853H162.022" stroke="#263238" stroke-linecap="round" stroke-linejoin="round"/>
<path d="M99.4526 352.853H127.071" stroke="#263238" stroke-linecap="round" stroke-linejoin="round"/>
<path d="M149.148 366.865H157.932" stroke="#263238" stroke-linecap="round" stroke-linejoin="round"/>
<path d="M126.607 366.865H141.789" stroke="#263238" stroke-linecap="round" stroke-linejoin="round"/>
<path d="M115.578 366.865H122.01" stroke="#263238" stroke-linecap="round" stroke-linejoin="round"/>
<path d="M99.4526 366.865H111.898" stroke="#263238" stroke-linecap="round" stroke-linejoin="round"/>
<path d="M279.802 364.244C279.803 364.825 279.698 365.4 279.491 365.936C279.284 366.473 278.98 366.961 278.597 367.371C278.213 367.782 277.758 368.107 277.257 368.328C276.756 368.55 276.219 368.663 275.677 368.662H232.37C231.828 368.663 231.29 368.55 230.789 368.329C230.287 368.107 229.832 367.782 229.448 367.372C229.064 366.961 228.759 366.474 228.551 365.937C228.343 365.401 228.236 364.825 228.236 364.244C228.239 363.072 228.675 361.948 229.45 361.12C230.225 360.292 231.275 359.826 232.37 359.826H275.677C276.219 359.826 276.755 359.941 277.256 360.163C277.756 360.385 278.211 360.71 278.594 361.12C278.977 361.531 279.281 362.018 279.488 362.554C279.696 363.09 279.802 363.664 279.802 364.244Z" fill="white" stroke="#263238" stroke-linecap="round" stroke-linejoin="round"/>
<path d="M236.487 359.826V368.662H232.37C231.828 368.663 231.29 368.55 230.789 368.329C230.287 368.107 229.832 367.782 229.448 367.372C229.064 366.961 228.759 366.474 228.551 365.937C228.343 365.401 228.236 364.825 228.236 364.244C228.239 363.072 228.675 361.948 229.45 361.12C230.225 360.292 231.275 359.826 232.37 359.826H236.487Z" fill="#18626F" stroke="#263238" stroke-linecap="round" stroke-linejoin="round"/>
<path d="M220.029 368.662H202.943C201.849 368.662 200.799 368.197 200.026 367.368C199.252 366.54 198.817 365.416 198.817 364.244C198.817 363.664 198.924 363.09 199.131 362.554C199.339 362.018 199.643 361.531 200.026 361.12C200.409 360.71 200.863 360.385 201.364 360.163C201.864 359.941 202.401 359.826 202.943 359.826H220.029C220.572 359.825 221.109 359.939 221.611 360.16C222.112 360.382 222.568 360.707 222.952 361.117C223.336 361.527 223.641 362.015 223.849 362.552C224.056 363.088 224.163 363.663 224.163 364.244C224.163 364.825 224.056 365.401 223.849 365.937C223.641 366.474 223.336 366.961 222.952 367.372C222.568 367.782 222.112 368.107 221.611 368.329C221.109 368.55 220.572 368.663 220.029 368.662Z" fill="white" stroke="#263238" stroke-linecap="round" stroke-linejoin="round"/>
<path d="M372.691 186.039H303.619C301.341 186.039 299.494 188.017 299.494 190.457V211.368C299.494 213.807 301.341 215.785 303.619 215.785H372.691C374.969 215.785 376.816 213.807 376.816 211.368V190.457C376.816 188.017 374.969 186.039 372.691 186.039Z" fill="#18626F" stroke="#263238" stroke-linecap="round" stroke-linejoin="round"/>
<path d="M314.316 205.695L313.818 208.503H312.49L314.954 194.688H317.035L319.499 208.475H318.066L317.568 205.667L314.316 205.695ZM314.5 204.376H317.367L315.916 196.42L314.5 204.376Z" fill="white"/>
<path d="M323.633 194.688C325.644 194.688 326.561 195.989 326.561 198.114V205.068C326.561 207.174 325.644 208.475 323.633 208.475H320.618V194.688H323.633ZM323.633 207.081C324.665 207.081 325.163 206.388 325.163 205.124V198.039C325.163 196.775 324.665 196.092 323.616 196.092H322.069V207.081H323.633Z" fill="white"/>
<path d="M330.923 194.688C332.924 194.688 333.842 195.989 333.842 198.114V205.068C333.842 207.174 332.924 208.475 330.923 208.475H327.907V194.688H330.923ZM330.923 207.081C331.945 207.081 332.443 206.388 332.443 205.124V198.039C332.443 196.775 331.945 196.092 330.896 196.092H329.358V207.081H330.923Z" fill="white"/>
<path d="M339.916 208.475V196.092H337.539V194.688H343.718V196.092H341.349V208.475H339.916Z" fill="white"/>
<path d="M345.466 205.695L344.968 208.503H343.648L346.104 194.688H348.184L350.649 208.475H349.207L348.717 205.667L345.466 205.695ZM345.649 204.376H348.516L347.065 196.42L345.649 204.376Z" fill="white"/>
<path d="M357.352 198.001V198.376H355.989V197.917C355.989 196.682 355.543 195.952 354.521 195.952C353.498 195.952 353.044 196.682 353.044 197.898C353.044 200.997 357.37 201.287 357.37 205.171C357.37 207.258 356.426 208.616 354.459 208.616C352.493 208.616 351.575 207.258 351.575 205.171V204.376H352.912V205.246C352.912 206.491 353.393 207.212 354.424 207.212C355.456 207.212 355.936 206.491 355.936 205.246C355.936 202.176 351.628 201.876 351.628 198.001C351.628 195.867 352.545 194.548 354.477 194.548C356.408 194.548 357.352 195.914 357.352 198.001Z" fill="white"/>
<path d="M360.805 202.494L360.053 203.851V208.475H358.62V194.688H360.088V201.343L363.505 194.688H364.965L361.705 200.969L365.07 208.457H363.584L360.805 202.494Z" fill="white"/>
<path d="M310.541 67.5043C310.541 67.5043 300.385 72.2966 295.097 73.813C289.81 75.3293 284.129 77.7348 282.704 82.5178C281.279 87.3007 274.934 105.702 274.523 109.662C274.113 113.621 280.641 120.641 280.641 120.641H365.175C365.175 120.641 366.748 97.7371 363.287 89.9028C359.826 82.0685 349.303 75.3761 346.279 74.075C343.255 72.774 335.336 68.5901 332.12 67.9442C328.904 67.2984 314.203 65.9786 310.541 67.5043Z" fill="white" stroke="#263238" stroke-linecap="round" stroke-linejoin="round"/>
<path d="M282.521 99.216C284.149 98.7074 285.865 98.6118 287.534 98.9367C289.203 99.2616 290.778 99.9982 292.135 101.088" fill="white"/>
<path d="M282.521 99.216C284.149 98.7074 285.865 98.6118 287.534 98.9367C289.203 99.2616 290.778 99.9982 292.135 101.088" stroke="#263238" stroke-linecap="round" stroke-linejoin="round"/>
<path d="M289.294 101.088C291.24 101.203 293.091 102.029 294.538 103.428L289.294 101.088Z" fill="white"/>
<path d="M289.294 101.088C291.24 101.203 293.091 102.029 294.538 103.428" stroke="#263238" stroke-linecap="round" stroke-linejoin="round"/>
<path d="M297.929 90.6422C298.725 92.1005 299.067 93.7917 298.908 95.472C298.652 98.6921 297.93 101.85 296.767 104.832" stroke="#263238" stroke-linecap="round" stroke-linejoin="round"/>
<path d="M294.975 87.4692C295.777 87.9864 296.495 88.6409 297.099 89.4067" stroke="#263238" stroke-linecap="round" stroke-linejoin="round"/>
<path d="M300.158 90.3708C300.158 90.3708 301.792 95.6405 300.874 99.8993" stroke="#263238" stroke-linecap="round" stroke-linejoin="round"/>
<path d="M344.068 93.6C344.068 93.6 342.04 101.219 342.241 103.615" stroke="#263238" stroke-linecap="round" stroke-linejoin="round"/>
<path d="M311.747 86.1775L315.479 93.366L318.652 104.355L323.127 94.3675L327.418 86.3834L319.019 84.9794L311.747 86.1775Z" fill="#18626F" stroke="#263238" stroke-linecap="round" stroke-linejoin="round"/>
<path d="M315.479 93.3754L323.127 94.3675" stroke="#263238" stroke-linecap="round" stroke-linejoin="round"/>
<path d="M311.354 73.3824C310.396 74.7745 309.641 76.3147 309.116 77.9501C308.304 80.5615 306.888 89.4816 306.888 89.4816C306.888 89.4816 314.806 89.051 316.843 89.051C318.879 89.051 322.087 89.2663 322.733 89.2663C323.38 89.2663 332.487 95.1444 332.487 95.1444C332.487 95.1444 334.113 85.1292 332.286 79.4758C330.459 73.8223 318.057 67.0738 311.354 73.3824Z" fill="white" stroke="#263238" stroke-linecap="round" stroke-linejoin="round"/>
<path d="M315.619 85.7282L318.835 92.9729L325.372 85.073C325.372 85.073 319.281 87.048 315.619 85.7282Z" fill="white" stroke="#263238" stroke-linecap="round" stroke-linejoin="round"/>
<path d="M342.87 167.422L339.732 173.628C339.732 173.628 335.852 174.498 335.45 175.369C334.454 177.356 333.283 179.237 331.954 180.985C330.94 182.071 328.912 183.596 330.739 184.467C332.566 185.337 335.817 181.425 335.817 181.425L337.643 180.33C337.774 182.067 337.575 183.815 337.058 185.468C335.861 189.147 334.48 193.621 334.654 194.089C335.528 196.429 336.97 194.782 336.97 194.782L339.697 187.958L340.178 187.631C340.178 187.631 339.627 195.427 339.627 195.456C339.523 196.888 340.702 198.563 341.734 197.094L344.172 188.829V196.26C344.165 196.531 344.216 196.8 344.32 197.047C344.424 197.293 344.579 197.511 344.774 197.684C344.968 197.858 345.197 197.981 345.442 198.046C345.688 198.11 345.944 198.114 346.191 198.058L346.41 197.964C347.223 197.533 347.502 188.454 347.502 188.454L349.198 195.006C349.237 195.177 349.31 195.338 349.41 195.477C349.511 195.617 349.638 195.732 349.783 195.816C349.928 195.9 350.087 195.95 350.252 195.964C350.416 195.977 350.581 195.954 350.736 195.895C350.814 195.87 350.886 195.826 350.945 195.765C351.004 195.705 351.049 195.631 351.077 195.549C351.287 194.903 350.675 184.458 350.675 184.458L350.264 173.572L350.876 169.875L342.87 167.422Z" fill="white" stroke="#263238" stroke-linecap="round" stroke-linejoin="round"/>
<path d="M346.716 94.536C346.716 94.536 343.464 101.94 343.866 104.551C344.268 107.163 353.743 132.126 353.743 132.126L341.97 168.452L351.322 170.848C351.322 170.848 367.29 145.426 368.985 139.96C369.915 136.87 370.326 133.628 370.2 130.385C370.2 129.074 366.424 99.3283 364.187 94.1054C362.886 91.0279 361.175 88.1684 359.109 85.6159" fill="white"/>
<path d="M346.716 94.536C346.716 94.536 343.464 101.94 343.866 104.551C344.268 107.163 353.743 132.126 353.743 132.126L341.97 168.452L351.322 170.848C351.322 170.848 367.29 145.426 368.985 139.96C369.915 136.87 370.326 133.628 370.2 130.385C370.2 129.074 366.424 99.3283 364.187 94.1054C362.886 91.0279 361.175 88.1684 359.109 85.6159" stroke="#263238" stroke-linecap="round" stroke-linejoin="round"/>
<path d="M355.167 131.208C355.167 131.208 358.821 125.761 361.058 122.279" stroke="#263238" stroke-linecap="round" stroke-linejoin="round"/>
<path d="M360.446 120.323L355.98 126.416" stroke="#263238" stroke-linecap="round" stroke-linejoin="round"/>
<path d="M342.783 164.923L352.738 167.535" stroke="#263238" stroke-linecap="round" stroke-linejoin="round"/>
<path d="M277.696 103.437C276.742 104.326 275.899 105.342 275.188 106.461C273.352 109.269 274.375 115.381 275.59 117.337C276.804 119.293 281.708 120.604 281.708 120.604H321.16L321.955 113.462H320.513C320.513 113.462 313.408 111.066 308.321 109.54C303.234 108.014 293.244 103.493 290.238 102.801C287.94 102.273 285.575 102.175 283.246 102.511" fill="white"/>
<path d="M277.696 103.437C276.742 104.326 275.899 105.342 275.188 106.461C273.352 109.269 274.375 115.381 275.59 117.337C276.804 119.293 281.708 120.604 281.708 120.604H321.16L321.955 113.462H320.513C320.513 113.462 313.408 111.066 308.321 109.54C303.234 108.014 293.244 103.493 290.238 102.801C287.94 102.273 285.575 102.175 283.246 102.511" stroke="#263238" stroke-linecap="round" stroke-linejoin="round"/>
<path d="M327.802 120.604L327.601 120.332C327.601 120.332 331.7 119.93 332.26 119.733C332.997 119.551 333.745 119.416 334.497 119.331L340.423 120.604H346.305L345.693 119.518L340.449 116.036L335.913 113.612C331.202 111.084 325.548 114.201 320.531 113.424L321.483 113.556L320.688 120.604H327.802Z" fill="white" stroke="#263238" stroke-linecap="round" stroke-linejoin="round"/>
<path d="M335.992 115.736L345.317 120.136" stroke="#263238" stroke-linecap="round" stroke-linejoin="round"/>
<path d="M317.9 113.144L317.655 120.388" stroke="#263238" stroke-linecap="round" stroke-linejoin="round"/>
<path d="M310.139 60.9804C308.508 58.5489 307.523 55.6894 307.289 52.7062C307.088 48.1385 309.116 47.268 309.116 47.268C309.116 47.268 306.075 42.0451 312.778 38.9938C319.482 35.9424 329.646 34.2108 335.336 37.4774C341.026 40.7441 343.053 48.3538 342.852 53.5766C342.651 58.7995 339.802 64.8929 339.802 64.8929L335.336 70.771C335.336 70.771 332.487 71.8567 331.84 70.5557C331.193 69.2546 327.811 65.3328 326.002 65.3328C324.193 65.3328 319.499 65.3328 317.061 64.2377C314.622 63.1426 310.139 60.9804 310.139 60.9804Z" fill="#263238" stroke="#263238" stroke-linecap="round" stroke-linejoin="round"/>
<path d="M309.728 54.4471C309.728 54.4471 309.527 67.7196 309.527 70.5557C309.527 73.3918 309.527 76.1717 310.742 79.0358C311.957 81.9 312.979 89.4816 318.468 89.9215C323.957 90.3614 331.875 84.3055 333.326 81.0014C334.777 77.6974 335.537 72.072 335.537 72.072C335.537 72.072 340.414 68.5901 341.227 64.4623C342.04 60.3346 340.414 58.369 339.4 60.3252C338.386 62.2814 336.962 67.289 336.35 67.7196C335.738 68.1502 334.925 65.1082 334.925 65.1082C334.925 65.1082 331.875 66.4186 331.473 65.1082C331.071 63.7978 333.099 57.4985 333.099 57.4985C333.099 57.4985 326.395 59.4547 324.97 59.4547C323.447 59.2671 321.946 58.9031 320.496 58.369L326.395 62.2814C323.821 63.4251 320.972 63.6547 318.267 62.9366C314.203 61.6262 311.153 54.4471 311.153 54.4471H309.728Z" fill="white" stroke="#263238" stroke-linecap="round" stroke-linejoin="round"/>
<path d="M315.829 68.3748V70.9863C315.829 70.9863 313.207 78.39 313.591 79.6911C313.976 80.9921 317.655 80.3463 318.468 79.9063" fill="white"/>
<path d="M315.829 68.3748V70.9863C315.829 70.9863 313.207 78.39 313.591 79.6911C313.976 80.9921 317.655 80.3463 318.468 79.9063" stroke="#263238" stroke-linecap="round" stroke-linejoin="round"/>
<path d="M315.418 81.8719C316.616 82.6179 317.97 83.0287 319.356 83.0663C320.741 83.104 322.113 82.7672 323.345 82.0872" fill="white"/>
<path d="M315.418 81.8719C316.616 82.6179 317.97 83.0287 319.356 83.0663C320.741 83.104 322.113 82.7672 323.345 82.0872" stroke="#263238" stroke-linecap="round" stroke-linejoin="round"/>
<path d="M321.309 72.072C322.328 72.8467 323.505 73.3502 324.742 73.5407C325.979 73.7311 327.241 73.603 328.423 73.1671" fill="white"/>
<path d="M321.309 72.072C322.328 72.8467 323.505 73.3502 324.742 73.5407C325.979 73.7311 327.241 73.603 328.423 73.1671" stroke="#263238" stroke-linecap="round" stroke-linejoin="round"/>
<path d="M321.519 68.1595C321.519 68.1595 326.002 66.456 328.834 69.6852L321.519 68.1595Z" fill="white"/>
<path d="M321.519 68.1595C321.519 68.1595 326.002 66.456 328.834 69.6852" stroke="#263238" stroke-linecap="round" stroke-linejoin="round"/>
<path d="M311.144 68.5901C311.144 68.5901 311.957 70.5557 315.82 70.9862L311.144 68.5901Z" fill="white"/>
<path d="M311.144 68.5901C311.144 68.5901 311.957 70.5557 315.82 70.9862" stroke="#263238" stroke-linecap="round" stroke-linejoin="round"/>
<path d="M315.016 66.456C315.016 66.456 313.591 63.8446 311.52 64.715L315.016 66.456Z" fill="white"/>
<path d="M315.016 66.456C315.016 66.456 313.591 63.8446 311.52 64.715" stroke="#263238" stroke-linecap="round" stroke-linejoin="round"/>
<path d="M318.652 104.355L312.866 159.682L320.33 170.867L327.226 159.682L318.652 104.355Z" fill="#18626F" stroke="#263238" stroke-linecap="round" stroke-linejoin="round"/>
<path d="M94.4707 239.129V248.237C94.4707 248.237 181.504 244.427 287.118 242.536L94.4707 239.129Z" fill="#263238" stroke="#263238" stroke-linecap="round" stroke-linejoin="round"/>
<path d="M287.118 186.039H89.6724V242.536H287.118V186.039Z" fill="white" stroke="#263238" stroke-linecap="round" stroke-linejoin="round"/>
<path d="M241.818 200.604C242.692 200.604 243.051 201.146 243.051 202.045V202.747C243.051 203.683 242.64 204.17 241.775 204.17H241.224V206.5H240.612V200.604H241.818ZM241.775 203.58C242.229 203.58 242.448 203.355 242.448 202.794V202.008C242.448 201.474 242.264 201.203 241.818 201.203H241.224V203.58H241.775Z" fill="#263238"/>
<path d="M244.72 200.604C245.594 200.604 245.953 201.072 245.953 201.951V202.429C245.953 203.075 245.743 203.486 245.271 203.646C245.769 203.805 245.961 204.245 245.961 204.872V205.808C245.945 206.05 245.981 206.294 246.066 206.519H245.446C245.362 206.29 245.329 206.043 245.349 205.798V204.862C245.349 204.198 245.052 203.992 244.545 203.992H244.108V206.51H243.497V200.613L244.72 200.604ZM244.572 203.412C245.052 203.412 245.349 203.243 245.349 202.597V202.036C245.349 201.502 245.166 201.231 244.711 201.231H244.108V203.412H244.572Z" fill="#263238"/>
<path d="M246.582 202.026C246.582 201.09 247.001 200.538 247.84 200.538C248.679 200.538 249.107 201.128 249.107 202.026V205.078C249.122 205.265 249.1 205.453 249.043 205.631C248.986 205.808 248.896 205.971 248.777 206.109C248.658 206.247 248.514 206.358 248.354 206.433C248.193 206.508 248.02 206.547 247.844 206.547C247.669 206.547 247.496 206.508 247.335 206.433C247.175 206.358 247.031 206.247 246.912 206.109C246.793 205.971 246.703 205.808 246.646 205.631C246.589 205.453 246.567 205.265 246.582 205.078V202.026ZM247.193 205.106C247.193 205.649 247.403 205.957 247.84 205.957C248.277 205.957 248.496 205.649 248.496 205.106V201.989C248.496 201.465 248.295 201.137 247.84 201.137C247.386 201.137 247.193 201.465 247.193 201.989V205.106Z" fill="#263238"/>
<path d="M252.123 202.026V202.532H251.537V201.989C251.537 201.465 251.345 201.137 250.89 201.137C250.436 201.137 250.252 201.465 250.252 201.989V205.106C250.252 205.639 250.453 205.957 250.89 205.957C251.327 205.957 251.537 205.639 251.537 205.106V203.926H250.969V203.337H252.123V205.078C252.123 206.014 251.729 206.556 250.882 206.556C250.034 206.556 249.641 205.967 249.641 205.078V202.026C249.641 201.09 250.034 200.538 250.882 200.538C251.729 200.538 252.123 201.128 252.123 202.026Z" fill="#263238"/>
<path d="M253.932 200.604C254.806 200.604 255.156 201.072 255.156 201.951V202.429C255.156 203.075 254.946 203.486 254.474 203.646C254.981 203.805 255.164 204.245 255.164 204.872V205.808C255.146 206.051 255.185 206.296 255.278 206.519H254.657C254.57 206.291 254.534 206.044 254.553 205.798V204.862C254.553 204.198 254.264 203.992 253.748 203.992H253.32V206.51H252.7V200.613L253.932 200.604ZM253.775 203.412C254.264 203.412 254.553 203.243 254.553 202.597V202.036C254.553 201.502 254.369 201.231 253.915 201.231H253.32V203.412H253.775Z" fill="#263238"/>
<path d="M257.76 203.215V203.805H256.414V205.92H258.066V206.519H255.802V200.622H258.066V201.24H256.414V203.252L257.76 203.215Z" fill="#263238"/>
<path d="M261.02 202.017V202.176H260.452V201.979C260.452 201.455 260.269 201.137 259.823 201.137C259.377 201.137 259.194 201.455 259.194 201.979C259.194 203.299 261.047 203.421 261.047 205.087C261.047 205.976 260.645 206.556 259.797 206.556C258.949 206.556 258.564 205.976 258.564 205.087V204.75H259.141V205.115C259.141 205.649 259.342 205.957 259.788 205.957C260.234 205.957 260.426 205.649 260.426 205.115C260.426 203.805 258.591 203.674 258.591 202.017C258.591 201.081 258.984 200.538 259.806 200.538C260.627 200.538 261.02 201.128 261.02 202.017Z" fill="#263238"/>
<path d="M263.948 202.017V202.176H263.362V201.979C263.362 201.455 263.17 201.137 262.733 201.137C262.296 201.137 262.104 201.455 262.104 201.979C262.104 203.299 263.948 203.421 263.948 205.087C263.948 205.976 263.555 206.556 262.707 206.556C261.859 206.556 261.475 205.976 261.475 205.087V204.75H262.051V205.115C262.051 205.649 262.252 205.957 262.689 205.957C263.126 205.957 263.336 205.649 263.336 205.115C263.336 203.805 261.501 203.674 261.501 202.017C261.501 201.081 261.894 200.538 262.716 200.538C263.537 200.538 263.948 201.128 263.948 202.017Z" fill="#263238"/>
<path d="M202.357 200.604C203.231 200.604 203.607 201.156 203.607 202.064V205.04C203.607 205.976 203.214 206.5 202.357 206.5H201.064V200.604H202.357ZM202.357 205.901C202.794 205.901 203.013 205.611 203.013 205.068V202.036C203.013 201.493 202.794 201.203 202.349 201.203H201.684V205.883L202.357 205.901Z" fill="#263238"/>
<path d="M206.142 203.215V203.805H204.796V205.92H206.448V206.519H204.184V200.622H206.448V201.24H204.796V203.252L206.142 203.215Z" fill="#263238"/>
<path d="M207.636 205.312L207.418 206.5H206.858L207.907 200.604H208.781L209.839 206.5H209.218L209.008 205.312H207.636ZM207.715 204.75H208.939L208.318 201.343L207.715 204.75Z" fill="#263238"/>
<path d="M211.622 200.604C212.496 200.604 212.871 201.156 212.871 202.064V205.04C212.871 205.976 212.478 206.5 211.622 206.5H210.328V200.604H211.622ZM211.622 205.901C212.067 205.901 212.277 205.611 212.277 205.068V202.036C212.277 201.493 212.067 201.203 211.613 201.203H210.957V205.883L211.622 205.901Z" fill="#263238"/>
<path d="M213.448 206.5V200.604H214.06V205.92H215.633V206.519L213.448 206.5Z" fill="#263238"/>
<path d="M216.752 200.604V206.5H216.14V200.604H216.752Z" fill="#263238"/>
<path d="M217.88 206.5H217.329V200.604H218.107L219.383 204.862V200.604H219.925V206.5H219.296L217.88 201.727V206.5Z" fill="#263238"/>
<path d="M222.52 203.215V203.805H221.174V205.92H222.87V206.519H220.598V200.622H222.87V201.24H221.218V203.252L222.52 203.215Z" fill="#263238"/>
<path d="M166.156 207.343H177.658" stroke="#263238" stroke-linecap="round" stroke-linejoin="round"/>
<path d="M131.668 207.343H162.022" stroke="#263238" stroke-linecap="round" stroke-linejoin="round"/>
<path d="M99.4526 207.343H127.071" stroke="#263238" stroke-linecap="round" stroke-linejoin="round"/>
<path d="M149.148 221.355H157.932" stroke="#263238" stroke-linecap="round" stroke-linejoin="round"/>
<path d="M126.608 221.355H141.789" stroke="#263238" stroke-linecap="round" stroke-linejoin="round"/>
<path d="M115.578 221.355H122.01" stroke="#263238" stroke-linecap="round" stroke-linejoin="round"/>
<path d="M99.4526 221.355H111.898" stroke="#263238" stroke-linecap="round" stroke-linejoin="round"/>
<path d="M279.802 218.734C279.803 219.314 279.698 219.889 279.491 220.426C279.284 220.963 278.98 221.45 278.597 221.861C278.213 222.271 277.758 222.596 277.257 222.818C276.756 223.04 276.219 223.153 275.677 223.152H232.37C231.828 223.153 231.29 223.04 230.789 222.818C230.287 222.597 229.832 222.271 229.448 221.861C229.064 221.451 228.759 220.963 228.551 220.427C228.343 219.89 228.236 219.315 228.236 218.734C228.241 217.561 228.678 216.438 229.452 215.609C230.226 214.78 231.275 214.312 232.37 214.307H275.677C276.22 214.307 276.757 214.421 277.258 214.644C277.759 214.866 278.214 215.193 278.597 215.604C278.98 216.015 279.284 216.503 279.491 217.04C279.698 217.577 279.803 218.153 279.802 218.734Z" fill="white" stroke="#263238" stroke-linecap="round" stroke-linejoin="round"/>
<path d="M220.029 223.152H202.943C201.849 223.152 200.799 222.686 200.026 221.858C199.252 221.029 198.817 219.906 198.817 218.734C198.824 217.567 199.262 216.45 200.035 215.628C200.808 214.806 201.853 214.344 202.943 214.344H220.029C220.572 214.344 221.11 214.459 221.611 214.681C222.113 214.903 222.569 215.23 222.953 215.641C223.336 216.052 223.641 216.54 223.849 217.077C224.056 217.614 224.163 218.19 224.163 218.771C224.154 219.938 223.714 221.054 222.94 221.874C222.165 222.695 221.119 223.154 220.029 223.152Z" fill="white" stroke="#263238" stroke-linecap="round" stroke-linejoin="round"/>
<path d="M107.083 251.784C107.083 251.784 110.002 243.65 110.579 242.817C111.155 241.984 112.134 239.897 113.891 239.897C115.648 239.897 118.759 240.103 120.123 239.476C121.486 238.849 123.234 238.849 122.849 240.103C122.465 241.357 120.123 241.769 120.123 241.769L130.244 242.611C130.244 242.611 127.324 245.522 125.961 246.149C124.564 246.68 123.133 247.099 121.678 247.404C120.468 248.276 119.158 248.978 117.78 249.491C116.497 249.786 115.198 249.996 113.891 250.118L111.75 254.283L107.083 251.784Z" fill="white" stroke="#263238" stroke-linecap="round" stroke-linejoin="round"/>
<path d="M120.132 241.759L115.648 243.014" stroke="#263238" stroke-linecap="round" stroke-linejoin="round"/>
<path d="M82.934 215.692L79.6216 221.748L81.5706 226.54L87.0244 222.16L89.7512 220.072V207.558L82.934 215.692Z" fill="white" stroke="#263238" stroke-linecap="round" stroke-linejoin="round"/>
<path d="M82.1562 219.024C82.1562 219.024 83.712 210.469 84.4898 209.43C85.2677 208.391 88.3879 205.883 89.358 205.686C90.3281 205.489 91.7003 206.098 90.9225 207.352C89.9502 208.544 88.8366 209.595 87.61 210.478C87.61 210.478 88.9734 214.653 87.9946 216.946C87.3208 218.39 86.2295 219.562 84.8831 220.288" fill="white"/>
<path d="M82.1562 219.024C82.1562 219.024 83.712 210.469 84.4898 209.43C85.2677 208.391 88.3879 205.883 89.358 205.686C90.3281 205.489 91.7003 206.098 90.9225 207.352C89.9502 208.544 88.8366 209.595 87.61 210.478C87.61 210.478 88.9734 214.653 87.9946 216.946C87.3208 218.39 86.2295 219.562 84.8831 220.288" stroke="#263238" stroke-linecap="round" stroke-linejoin="round"/>
<path d="M79.8226 220.072L83.1264 229.039L66.1882 242.808L62.4912 228.627L79.8226 220.072Z" fill="#18626F" stroke="#263238" stroke-linecap="round" stroke-linejoin="round"/>
<path d="M72.1051 370.497L72.7606 379.389C72.7606 379.389 68.3906 389.217 68.8276 397.875C69.2646 406.533 70.1386 431.571 70.1386 432.975C70.1386 434.379 67.9536 436.017 69.4831 441.867C69.9114 443.495 73.6346 442.335 77.3491 444.909C81.0636 447.483 85.6521 449.121 88.4926 449.121C91.3331 449.121 92.8626 449.121 92.8626 447.717C92.8626 446.313 88.7111 444.441 86.9631 442.569C84.218 439.227 81.6642 435.711 79.3156 432.039C78.8786 431.103 80.8451 417.297 82.1561 411.915C83.4671 406.533 87.1816 393.663 88.7111 384.537C90.2406 375.411 90.8961 367.923 90.8961 367.923L72.1051 370.497Z" fill="white" stroke="#263238" stroke-linecap="round" stroke-linejoin="round"/>
<path d="M69.4829 441.867L69.9199 448.185H72.9789L74.2899 443.037C74.2899 443.037 70.5754 441.633 69.4829 441.867Z" fill="#263238" stroke="#263238" stroke-linecap="round" stroke-linejoin="round"/>
<path d="M88.4924 449.121C91.3154 448.821 92.8624 449.121 92.8624 447.717C92.8624 446.313 88.7109 444.441 86.9629 442.569C84.5866 439.682 82.3492 436.667 80.2593 433.536C79.358 434.291 78.2703 434.746 77.1304 434.847C73.8529 435.081 70.1384 432.975 70.1384 432.975C70.1384 434.379 67.9534 436.017 69.4829 441.867C69.9111 443.495 73.7567 443.205 76.7545 447.062C79.5863 450.703 88.0641 449.168 88.4924 449.121Z" fill="#263238" stroke="#263238" stroke-linecap="round" stroke-linejoin="round"/>
<path d="M46.5405 363.711L46.9775 376.815C46.9775 376.815 41.2965 385.005 40.204 392.961C39.1115 400.917 35.397 432.039 35.397 435.081C35.397 438.123 33.649 447.951 34.523 448.653C35.397 449.355 45.448 448.653 45.448 448.653C45.8028 447.605 45.9515 446.489 45.885 445.377C45.885 443.037 44.137 435.315 44.574 433.443C45.011 431.571 46.5405 425.721 46.5405 425.721C46.5405 425.721 53.314 406.767 56.1545 400.917C58.995 395.067 61.3985 386.643 62.928 381.495C64.4575 376.347 65.7685 369.093 65.7685 369.093L46.5405 363.711Z" fill="white" stroke="#263238" stroke-linecap="round" stroke-linejoin="round"/>
<path d="M44.5216 433.798C41.4888 429.231 36.542 432.02 35.5718 432.628C35.4582 433.836 35.397 434.697 35.397 435.081C35.397 438.123 33.649 447.951 34.523 448.653C35.397 449.355 45.448 448.653 45.448 448.653C45.8028 447.605 45.9515 446.489 45.885 445.377C45.885 443.168 44.3206 436.176 44.5216 433.798Z" fill="#263238" stroke="#263238" stroke-linecap="round" stroke-linejoin="round"/>
<path d="M45.4478 448.653C45.0108 447.249 41.9518 441.633 41.9518 441.633L36.2708 441.867C34.3043 444.207 34.5228 448.653 34.5228 448.653C35.3968 449.355 45.4478 448.653 45.4478 448.653Z" fill="#8C8C8C" stroke="#263238" stroke-linecap="round" stroke-linejoin="round"/>
<path d="M41.952 441.633C41.952 441.633 39.9855 439.761 38.456 440.463C37.6576 440.793 36.9184 441.268 36.271 441.867L36.4895 448.887H40.4225L41.952 441.633Z" fill="#263238" stroke="#263238" stroke-linecap="round" stroke-linejoin="round"/>
<path d="M41.7335 317.145C40.5648 320.603 39.9015 324.234 39.767 327.909C39.5485 333.993 41.078 363.945 41.078 363.945C41.078 363.945 52.003 371.901 70.357 372.603C88.711 373.305 97.2325 367.923 97.2325 367.923C97.2325 367.923 96.7955 331.887 94.6105 323.229C92.4255 314.571 88.4925 311.061 88.4925 311.061C88.4925 311.061 79.7525 313.869 66.424 313.635C58.8493 313.574 51.3032 312.633 43.9185 310.827L41.7335 317.145Z" fill="#263238" stroke="#263238" stroke-linecap="round" stroke-linejoin="round"/>
<path d="M47.4932 245.101C47.4932 245.101 42.0394 255.94 41.2615 263.868C40.4837 271.796 47.6854 295.982 47.6854 296.815C47.6854 297.648 40.0991 318.502 40.0991 318.502C46.0608 321.24 52.2381 323.404 58.558 324.97C68.2944 327.263 78.223 325.803 80.172 325.176L82.7066 317.051L83.6768 323.931C83.6768 323.931 83.6768 324.137 86.7969 323.304C89.9171 322.471 93.7889 318.923 93.7889 318.923C93.7889 318.923 88.7285 306.203 86.1939 302.656C83.6593 299.108 80.5478 290.984 80.5478 290.984L81.7103 280.557C81.7103 280.557 90.4503 288.269 91.2543 288.475C92.0584 288.681 104.111 273.499 106.637 269.081C109.163 264.663 113.262 253.441 113.262 253.441L107.502 250.315L105.168 252.814L91.3417 268.875C91.3417 268.875 82.9688 258.654 78.8785 256.988C74.7882 255.322 67.0008 252.814 67.0008 252.814L51.2251 248.854L52.3963 245.307C52.3963 245.307 51.566 242.808 47.4932 245.101Z" fill="#18626F" stroke="#263238" stroke-linecap="round" stroke-linejoin="round"/>
<path d="M81.7714 280.557L72.979 275.025L80.9848 285.386L81.7714 280.557Z" fill="#263238" stroke="#263238" stroke-linecap="round" stroke-linejoin="round"/>
<path d="M63.3037 293.464C64.1223 294.494 65.0198 295.449 65.9869 296.319" stroke="#263238" stroke-linecap="round" stroke-linejoin="round"/>
<path d="M52.5884 273.087C52.5884 273.087 56.3466 283.458 61.5207 291.04" stroke="#263238" stroke-linecap="round" stroke-linejoin="round"/>
<path d="M56.7402 288.803C58.8406 292.486 61.2985 295.922 64.0731 299.052" stroke="#263238" stroke-linecap="round" stroke-linejoin="round"/>
<path d="M72.8129 212.36C73.5862 214.017 74.173 215.767 74.5609 217.573C75.3387 220.905 78.0569 222.581 79.0445 222.366C80.0321 222.15 80.0146 224.659 79.4291 225.913C79.0132 226.752 78.4895 227.523 77.8733 228.206C77.7539 231.139 77.4942 234.063 77.0955 236.967C76.5099 240.711 76.3176 243.641 74.9542 243.641H67.9622C67.9622 243.641 67.3766 246.973 67.1756 249.687C66.9746 252.402 66.9833 252.814 66.9833 252.814L51.2076 248.854L52.9556 243.014C52.9556 243.014 43.027 238.221 47.8951 229.46C52.7633 220.699 64.2389 209.664 72.8129 212.36Z" fill="white" stroke="#263238" stroke-linecap="round" stroke-linejoin="round"/>
<path d="M67.9447 243.641L64.7109 243.36L67.263 248.143L67.9447 243.641Z" fill="#263238" stroke="#263238" stroke-linecap="round" stroke-linejoin="round"/>
<path d="M77.4801 232.793C76.9014 233.177 76.2413 233.398 75.5613 233.436C74.8813 233.473 74.2035 233.326 73.5908 233.008" stroke="#263238" stroke-linecap="round" stroke-linejoin="round"/>
<path d="M71.4497 219.866C71.4497 219.866 71.8343 215.907 73.7833 216.122" stroke="#263238" stroke-linecap="round" stroke-linejoin="round"/>
<path d="M74.5259 221.523C74.858 222.618 74.8318 223.601 74.4734 223.732C74.1151 223.863 73.5994 223.058 73.2323 221.963C72.8653 220.868 72.9264 219.885 73.2848 219.754C73.6431 219.623 74.2025 220.419 74.5259 221.523Z" fill="#263238"/>
<path d="M72.8128 206.098L72.8828 206.191C74.9454 209.065 74.6308 212.266 73.0051 215.28C69.7626 221.411 59.8951 227.111 59.8951 232.175C59.8951 237.239 64.8769 236.976 64.8769 236.976C64.8769 236.976 66.8696 241.516 61.8878 245.513C56.906 249.51 46.6803 250.577 40.2039 243.36C38.4231 241.308 37.1257 238.831 36.4195 236.134C34.453 229.114 34.1733 221.308 37.0662 214.943C39.496 209.608 42.3103 205.284 47.3707 202.597C51.3562 200.501 57.649 199.976 62.0976 200.257C64.27 200.346 66.4038 200.899 68.3729 201.886C70.1022 202.956 71.6123 204.389 72.8128 206.098Z" fill="#263238" stroke="#263238" stroke-linecap="round" stroke-linejoin="round"/>
<path d="M59.1963 241.282C60.1578 241.114 61.0988 240.831 62.0018 240.44" stroke="#757575" stroke-linecap="round" stroke-linejoin="round"/>
<path d="M67.7 217.882C66.3443 219.99 64.6484 221.822 62.692 223.292C55.8224 228.44 48.271 233.832 51.7058 238.727C52.2971 239.565 53.058 240.249 53.9314 240.727C54.8048 241.205 55.7681 241.466 56.7488 241.488" stroke="#757575" stroke-linecap="round" stroke-linejoin="round"/>
<path d="M70.6977 210.544C70.4217 211.995 69.9784 213.403 69.3779 214.737" stroke="#757575" stroke-linecap="round" stroke-linejoin="round"/>
<path d="M54.3191 224.968C53.2004 226.624 51.7932 228.571 50.1064 230.64C45.2994 236.527 45.9811 248.527 56.7401 247.553" stroke="#757575" stroke-linecap="round" stroke-linejoin="round"/>
<path d="M57.4218 219.857C57.4218 219.857 56.9149 220.896 55.936 222.468" stroke="#757575" stroke-linecap="round" stroke-linejoin="round"/>
</svg>
