<svg width="960" height="960" viewBox="0 0 960 960" fill="none" xmlns="http://www.w3.org/2000/svg">
<g filter="url(#filter0_d_861_128)">
<path d="M253.444 898.517C213.434 898.517 181 883.808 181 865.663C181 847.519 213.434 832.809 253.444 832.809C293.454 832.809 325.888 847.519 325.888 865.663C325.888 883.808 293.454 898.517 253.444 898.517Z" fill="#FFECD1"/>
</g>
<g filter="url(#filter1_d_861_128)">
<path d="M455.768 86.1097L706.979 232.947C710.714 235.414 713.821 238.737 716.051 242.647C718.281 246.556 719.569 250.943 719.812 255.45V858.733C719.812 867.014 714.063 870.374 706.979 866.233L455.768 719.396C452.029 716.934 448.917 713.612 446.687 709.702C444.457 705.791 443.171 701.402 442.935 696.893V93.6106C442.935 85.3296 448.655 81.9692 455.768 86.1097Z" fill="#455A64"/>
<path d="M706.978 232.947L455.767 86.1097C449.425 82.3892 444.179 84.6995 443.112 91.1503C443.704 87.0946 445.138 83.2118 447.32 79.7573C449.501 76.3029 452.38 73.3551 455.767 71.1079L466.2 65.1072C470.177 63.0645 474.573 62 479.033 62C483.492 62 487.889 63.0645 491.866 65.1072L743.107 211.825C746.891 214.227 750.011 217.561 752.176 221.516L716.048 242.519C713.884 238.595 710.761 235.299 706.978 232.947Z" fill="#37474F"/>
<path d="M756 837.61C755.757 842.118 754.468 846.504 752.239 850.413C750.009 854.323 746.901 857.646 743.167 860.113L732.705 866.114C729.084 867.947 725.121 868.986 721.076 869.162C717.03 869.338 712.994 868.646 709.231 867.134C715.159 869.474 719.871 866.023 719.871 858.613V255.45C719.723 250.923 718.427 246.512 716.107 242.639L752.236 221.636C754.523 225.48 755.817 229.844 756 234.328V837.61Z" fill="#263238"/>
<path d="M700.073 313.327L462.584 174.56C458.316 172.1 454.878 174.11 454.878 179.061V625.575C455.021 628.281 455.793 630.914 457.132 633.261C458.471 635.607 460.339 637.6 462.584 639.076L699.984 777.843C704.252 780.333 707.69 778.323 707.69 773.342V326.829C707.555 324.131 706.795 321.504 705.472 319.158C704.149 316.813 702.3 314.815 700.073 313.327Z" fill="white"/>
<path d="M581.373 182.391C582.684 183.263 583.775 184.433 584.557 185.809C585.34 187.185 585.792 188.727 585.878 190.312C585.878 193.313 583.863 194.423 581.373 192.953C580.058 192.087 578.963 190.917 578.18 189.54C577.397 188.164 576.948 186.618 576.868 185.032C576.868 182.121 578.884 180.951 581.373 182.391Z" fill="#37474F"/>
<path d="M581.373 729.807C586.554 733.238 590.864 737.857 593.954 743.289C597.043 748.72 598.825 754.812 599.156 761.071C599.156 772.562 591.183 777.243 581.373 771.482C576.193 768.049 571.885 763.43 568.796 757.999C565.706 752.568 563.923 746.477 563.59 740.218C563.531 728.727 571.533 724.046 581.373 729.807Z" fill="#37474F"/>
<path d="M624.022 228.837C626.627 230.587 628.789 232.933 630.333 235.685C631.878 238.437 632.762 241.518 632.914 244.679C632.914 250.499 628.883 252.87 624.022 249.959C621.39 248.226 619.199 245.887 617.628 243.134C616.058 240.381 615.151 237.292 614.983 234.118C614.983 228.297 619.013 225.927 624.022 228.837Z" fill="#37474F"/>
<path d="M601.883 226.857C601.883 230.757 598.919 232.227 595.451 230.157L536.175 195.443C534.339 194.282 532.8 192.699 531.682 190.822C530.565 188.945 529.901 186.827 529.744 184.642C529.744 180.771 532.708 179.301 536.175 181.371L595.451 216.085C597.284 217.243 598.821 218.822 599.938 220.693C601.056 222.565 601.722 224.676 601.883 226.857Z" fill="#37474F"/>
<path d="M735.965 332.649C733.861 334.036 732.11 335.905 730.854 338.105C729.598 340.305 728.871 342.774 728.733 345.311C728.733 349.991 731.963 351.882 735.965 349.541C738.061 348.149 739.804 346.278 741.055 344.079C742.306 341.88 743.029 339.414 743.167 336.88C743.167 332.229 739.936 330.339 735.965 332.649Z" fill="#37474F"/>
<path d="M735.965 388.996C733.861 390.383 732.11 392.252 730.854 394.452C729.598 396.652 728.871 399.12 728.733 401.658C728.733 406.308 731.963 408.198 735.965 405.888C738.061 404.496 739.804 402.625 741.055 400.426C742.306 398.227 743.029 395.761 743.167 393.227C743.167 388.546 739.936 386.656 735.965 388.996Z" fill="#37474F"/>
<path d="M738.218 333.789C736.114 335.176 734.363 337.046 733.107 339.245C731.851 341.445 731.124 343.914 730.986 346.451C730.986 351.102 734.216 352.992 738.218 350.682C740.321 349.295 742.072 347.425 743.328 345.226C744.585 343.026 745.311 340.557 745.449 338.02C745.42 333.339 742.189 331.539 738.218 333.789Z" fill="#455A64"/>
<path d="M738.218 390.106C736.11 391.496 734.357 393.37 733.101 395.575C731.844 397.781 731.119 400.255 730.986 402.798C730.986 407.448 734.216 409.339 738.218 406.998C740.326 405.617 742.08 403.749 743.337 401.548C744.595 399.347 745.318 396.876 745.449 394.337C745.42 389.686 742.189 387.796 738.218 390.106Z" fill="#455A64"/>
<path d="M406.806 193.193C406.806 188.212 410.244 186.202 414.512 188.692L442.935 205.284L651.912 327.459C654.157 328.935 656.025 330.928 657.364 333.274C658.703 335.621 659.475 338.254 659.618 340.96V787.354C659.618 792.335 656.18 794.345 651.912 791.855L442.846 669.65L414.512 653.088C412.267 651.612 410.399 649.619 409.06 647.272C407.721 644.926 406.948 642.292 406.806 639.586V193.193Z" fill="white"/>
<path d="M403.842 193.193C403.655 191.688 403.911 190.161 404.577 188.803C405.244 187.445 406.291 186.315 407.587 185.557C408.884 184.798 410.373 184.443 411.869 184.536C413.364 184.63 414.798 185.167 415.993 186.082L443.112 201.954L653.393 324.968C656.101 326.698 658.352 329.069 659.952 331.876C661.553 334.683 662.455 337.842 662.581 341.08V787.354C662.7 788.852 662.416 790.355 661.758 791.702C661.1 793.049 660.094 794.191 658.847 795.005C657.785 795.629 656.577 795.951 655.349 795.935C653.612 795.88 651.918 795.374 650.429 794.465L440 671.45L412.941 655.638C410.249 653.891 408.01 651.517 406.411 648.713C404.812 645.91 403.901 642.76 403.753 639.526L403.842 193.193ZM443.053 666.319L445.483 667.76L653.275 789.214C653.624 789.486 654.029 789.675 654.459 789.769C654.89 789.862 655.336 789.857 655.764 789.754C656.15 789.514 656.535 788.674 656.535 787.294V340.96C656.381 338.782 655.742 336.667 654.663 334.775C653.585 332.883 652.097 331.264 650.311 330.039L442.727 208.524L413.089 191.152C412.739 190.881 412.335 190.691 411.904 190.598C411.473 190.504 411.028 190.509 410.599 190.612C410.214 190.852 409.829 191.692 409.829 193.073V639.586C409.982 641.765 410.622 643.88 411.7 645.771C412.778 647.663 414.266 649.283 416.053 650.508L443.112 666.319H443.053Z" fill="#043B64"/>
<path d="M533.212 296.915C506.538 281.373 485.05 293.915 485.05 325.088C485.05 356.262 506.627 394.097 533.212 409.519C559.797 424.94 581.374 412.519 581.374 381.375C581.374 350.231 559.797 312.487 533.212 296.915Z" fill="#043B64"/>
<path d="M533.212 321.398C524.587 316.357 517.593 320.438 517.593 330.399C517.886 335.887 519.453 341.227 522.166 345.987C524.88 350.746 528.664 354.791 533.212 357.792C541.836 362.833 548.831 358.752 548.831 348.791C548.538 343.304 546.971 337.963 544.257 333.204C541.543 328.444 537.759 324.4 533.212 321.398Z" fill="#043B64"/>
<path d="M502.774 375.164C502.774 358.602 514.244 351.882 528.44 360.163L537.332 365.353C551.499 373.634 562.998 393.797 562.998 410.359V414.829C554.788 417.56 544.474 416.089 533.36 409.519C521.048 401.83 510.636 391.393 502.922 379.005L502.774 375.164Z" fill="#043B64"/>
<path opacity="0.7" d="M533.212 321.398C524.587 316.357 517.593 320.438 517.593 330.399C517.886 335.887 519.453 341.227 522.166 345.987C524.88 350.746 528.664 354.791 533.212 357.792C541.836 362.833 548.831 358.752 548.831 348.791C548.538 343.304 546.971 337.963 544.257 333.204C541.543 328.444 537.759 324.4 533.212 321.398Z" fill="white"/>
<path opacity="0.7" d="M502.774 375.164C502.774 358.602 514.244 351.882 528.44 360.163L537.332 365.353C551.499 373.634 562.998 393.797 562.998 410.359V414.829C554.788 417.56 544.474 416.089 533.36 409.519C521.048 401.83 510.636 391.393 502.922 379.005L502.774 375.164Z" fill="white"/>
<path d="M626.393 478.077L564.42 441.862C561.456 440.212 559.293 441.532 559.293 444.863V446.933C559.387 448.736 559.9 450.491 560.791 452.056C561.682 453.62 562.926 454.949 564.42 455.934L626.393 492.149C629.209 493.799 631.521 492.449 631.521 489.148V487.078C631.424 485.275 630.91 483.521 630.019 481.957C629.128 480.393 627.886 479.064 626.393 478.077Z" fill="#043B64"/>
<path opacity="0.1" d="M626.393 478.077L564.42 441.862C561.456 440.212 559.293 441.532 559.293 444.863V446.933C559.387 448.736 559.9 450.491 560.791 452.056C561.682 453.62 562.926 454.949 564.42 455.934L626.393 492.149C629.209 493.799 631.521 492.449 631.521 489.148V487.078C631.424 485.275 630.91 483.521 630.019 481.957C629.128 480.393 627.886 479.064 626.393 478.077Z" fill="black"/>
<path d="M628.942 521.792L441.452 412.219C440.059 411.379 438.903 412.039 438.903 413.719V435.862C438.956 436.76 439.213 437.635 439.655 438.415C440.097 439.196 440.713 439.863 441.452 440.362L628.942 549.936C630.365 550.776 631.521 550.086 631.521 548.435V526.293C631.47 525.39 631.21 524.513 630.762 523.731C630.314 522.949 629.69 522.285 628.942 521.792Z" fill="#043B64"/>
<path opacity="0.2" d="M628.942 521.792L441.452 412.219C440.059 411.379 438.903 412.039 438.903 413.719V435.862C438.956 436.76 439.213 437.635 439.655 438.415C440.097 439.196 440.713 439.863 441.452 440.362L628.942 549.936C630.365 550.776 631.521 550.086 631.521 548.435V526.293C631.47 525.39 631.21 524.513 630.762 523.731C630.314 522.949 629.69 522.285 628.942 521.792Z" fill="white"/>
<path d="M626.393 576.579L564.42 540.364C561.456 538.714 559.293 540.064 559.293 543.365V545.435C559.384 547.239 559.897 548.995 560.788 550.559C561.679 552.124 562.924 553.452 564.42 554.436L626.393 590.65C629.209 592.331 631.521 590.98 631.521 587.65V585.58C631.42 583.778 630.903 582.026 630.013 580.463C629.123 578.9 627.883 577.569 626.393 576.579Z" fill="#043B64"/>
<path opacity="0.1" d="M626.393 576.579L564.42 540.364C561.456 538.714 559.293 540.064 559.293 543.365V545.435C559.384 547.239 559.897 548.995 560.788 550.559C561.679 552.124 562.924 553.452 564.42 554.436L626.393 590.65C629.209 592.331 631.521 590.98 631.521 587.65V585.58C631.42 583.778 630.903 582.026 630.013 580.463C629.123 578.9 627.883 577.569 626.393 576.579Z" fill="black"/>
<path d="M628.942 620.294L441.452 510.721C440.059 509.881 438.903 510.571 438.903 512.221V534.364C438.956 535.262 439.213 536.136 439.655 536.917C440.097 537.698 440.713 538.365 441.452 538.864L628.942 648.437C630.365 649.277 631.521 648.617 631.521 646.937V624.794C631.47 623.892 631.21 623.015 630.762 622.233C630.314 621.451 629.69 620.787 628.942 620.294Z" fill="#043B64"/>
<path opacity="0.2" d="M628.942 620.294L441.452 510.721C440.059 509.881 438.903 510.571 438.903 512.221V534.364C438.956 535.262 439.213 536.136 439.655 536.917C440.097 537.698 440.713 538.365 441.452 538.864L628.942 648.437C630.365 649.277 631.521 648.617 631.521 646.937V624.794C631.47 623.892 631.21 623.015 630.762 622.233C630.314 621.451 629.69 620.787 628.942 620.294Z" fill="white"/>
<path d="M554.166 632.865L480.071 589.63C477.107 587.95 474.914 589.3 474.914 592.631V615.793C475.011 617.599 475.529 619.356 476.425 620.921C477.321 622.485 478.571 623.812 480.071 624.794L554.166 668.06C557.129 669.71 559.293 668.36 559.293 665.059V641.867C559.19 640.066 558.673 638.314 557.782 636.751C556.892 635.188 555.654 633.858 554.166 632.865Z" fill="#043B64"/>
<path opacity="0.1" d="M554.166 632.865L480.071 589.63C477.107 587.95 474.914 589.3 474.914 592.631V615.793C475.011 617.599 475.529 619.356 476.425 620.921C477.321 622.485 478.571 623.812 480.071 624.794L554.166 668.06C557.129 669.71 559.293 668.36 559.293 665.059V641.867C559.19 640.066 558.673 638.314 557.782 636.751C556.892 635.188 555.654 633.858 554.166 632.865Z" fill="black"/>
</g>
<g filter="url(#filter2_d_861_128)">
<path d="M377.115 535.114C377.115 535.114 415.827 484.288 418.097 478.107C419.894 473.546 418.097 466.766 417.529 463.615C416.962 460.465 416.458 453.444 415.89 451.614C414.944 448.193 419.579 448.883 422.195 452.004C424.812 455.124 425.694 461.365 427.05 462.385C428.405 463.405 438.714 449.093 444.105 442.493C449.495 435.892 452.869 431.871 456.179 434.332C458.543 436.102 456.778 439.942 452.869 445.583C450.586 448.62 448.481 451.776 446.564 455.034C445.965 456.264 449.18 456.354 450.914 458.905C452.27 460.885 450.914 464.095 452.806 465.625C453.97 466.469 454.767 467.69 455.046 469.056C455.325 470.423 455.066 471.84 454.319 473.036C450.81 478.281 446.284 482.843 440.984 486.478C435.183 490.288 432.85 491.639 429.414 496.829C425.978 502.02 395.147 555.036 393.066 558.217C390.986 561.397 386.982 567.878 380.898 568.058C374.813 568.238 325.004 527.433 322.451 525.393C314.255 518.882 311.638 517.952 310.251 523.802C309.772 525.882 309.414 527.986 309.179 530.103C308.202 537.544 302.874 564.127 302.874 564.127C302.874 564.127 277.654 575.739 256.943 570.128C236.231 564.517 229.232 556.146 229.232 556.146L239.604 540.064C236.798 533.434 223.842 506.55 219.649 487.738L284.59 477.747C285.914 477.477 288.058 476.967 290.895 476.277C294.457 475.377 303.505 472.406 310.345 478.107C332.665 496.619 377.052 535.114 377.052 535.114" fill="#FFA8A7"/>
<path d="M248.368 846.971L260.001 862.363C254.714 864.712 248.938 865.892 243.104 865.814C232.669 866.174 229.8 862.813 229.422 862.153C227.657 858.553 230.399 852.072 231.156 846.491L248.368 846.971Z" fill="#37474F"/>
<path d="M259.339 854.982C259.339 854.982 273.462 854.112 283.203 852.972C292.944 851.832 300.667 856.332 298.398 860.143C296.128 863.953 290.737 867.134 282.352 869.804C275.196 872.114 266.589 873.764 259.149 875.805C251.71 877.845 246.54 880.515 242.221 879.075C237.397 877.485 235.317 875.655 235.727 872.294C236.779 867.514 238.084 862.788 239.636 858.133L259.339 854.982Z" fill="#37474F"/>
<path d="M229.421 831.519C229.421 831.519 231.187 845.501 231.313 848.501C231.439 851.502 245.657 852.462 248.368 846.971L248.809 829.869L229.421 831.519Z" fill="#F28F8F"/>
<path d="M243.733 840.1L238.658 861.343C238.658 861.343 238.185 863.923 249.786 865.573C261.387 867.224 279.609 859.783 282.73 858.283C285.85 856.782 286.197 853.752 274.785 854.352C263.373 854.952 259.338 854.982 259.338 854.982L263.058 845.591L243.733 840.1Z" fill="#FFA8A7"/>
<path d="M219.838 487.558L211.799 485.428C211.799 485.428 194.997 536.044 193.137 540.934C191.277 545.825 189.165 550.986 192.79 557.016C197.109 564.187 219.838 593.021 219.838 593.021L234.276 579.579L217.883 551.016L232.385 523.112L219.838 487.558Z" fill="#F28F8F"/>
<path d="M302.401 421.82C304.286 418.453 305.243 414.686 305.182 410.871C305.121 407.057 304.045 403.319 302.055 400.008C294.047 385.876 276.204 379.005 254.957 381.615C245.121 382.845 233.52 390.616 227.183 402.228C220.185 415.099 219.523 441.022 217.726 450.834L302.401 421.82Z" fill="#37474F"/>
<path d="M302.968 427.371C302.968 427.371 308.012 436.522 307.13 437.362C305.822 438.089 304.393 438.596 302.905 438.862L302.968 427.371Z" fill="#FFA8A7"/>
<path d="M287.648 398.447C293.133 401.838 302.59 408.078 303 428.631C303.441 449.633 300.289 456.564 297.01 458.995C294.804 460.645 281.847 459.805 276.299 458.575C270.75 457.344 254.767 449.813 248.998 438.382C242.22 424.941 243.608 405.378 253.664 399.377C258.782 396.497 264.586 394.9 270.53 394.738C276.473 394.575 282.364 395.851 287.648 398.447Z" fill="#FFA8A7"/>
<path d="M229.422 556.026C219.712 570.428 210.507 583.029 208.489 599.291C204.328 633.466 217.947 672.53 220.878 697.823C215.365 705.018 212.187 713.592 211.736 722.486C211.736 732.958 229.422 831.519 229.422 831.519C229.422 831.519 242.284 835.24 248.809 829.869L260.946 648.557L254.641 626.475L229.422 556.026Z" fill="#043B64"/>
<path opacity="0.2" d="M229.422 556.026C219.712 570.428 210.507 583.029 208.489 599.291C204.328 633.466 217.947 672.53 220.878 697.823C215.365 705.018 212.187 713.592 211.736 722.486C211.736 732.958 229.422 831.519 229.422 831.519C229.422 831.519 242.284 835.24 248.809 829.869L260.946 648.557L254.641 626.475L229.422 556.026Z" fill="black"/>
<path d="M260.946 648.557L254.641 626.475C242.569 623.45 230.926 619.048 219.964 613.363C219.964 613.363 226.521 624.734 245.373 630.975L255.114 659.329L255.934 724.286L260.946 648.557Z" fill="#043B64"/>
<path opacity="0.3" d="M260.946 648.557L254.641 626.475C242.569 623.45 230.926 619.048 219.964 613.363C219.964 613.363 226.521 624.734 245.373 630.975L255.114 659.329L255.934 724.286L260.946 648.557Z" fill="black"/>
<path d="M229.422 556.026C224.22 564.127 211.799 577.929 214.447 591.22C217.6 607.302 226.742 618.614 254.547 626.475L280.649 716.486C280.649 716.486 267.062 728.487 262.901 740.098C258.739 751.71 243.734 840.16 243.734 840.16C243.734 840.16 248.399 847.391 263.058 845.651C263.058 845.651 314.16 734.638 317.754 727.407C322.116 720.084 323.644 711.538 322.072 703.254C320.465 691.613 303.158 564.187 303.158 564.187L229.422 556.026Z" fill="#043B64"/>
<path opacity="0.2" d="M229.422 556.026C224.22 564.127 211.799 577.929 214.447 591.22C217.6 607.302 226.742 618.614 254.547 626.475L280.649 716.486C280.649 716.486 267.062 728.487 262.901 740.098C258.739 751.71 243.734 840.16 243.734 840.16C243.734 840.16 248.399 847.391 263.058 845.651C263.058 845.651 314.16 734.638 317.754 727.407C322.116 720.084 323.644 711.538 322.072 703.254C320.465 691.613 303.158 564.187 303.158 564.187L229.422 556.026Z" fill="black"/>
<path d="M219.838 487.558L284.779 477.567C286.103 477.297 288.246 476.787 291.084 476.097C291.084 476.097 293.858 514.861 310.534 523.742C310.124 525.603 309.778 527.673 309.462 530.043C308.485 537.484 303.157 564.067 303.157 564.067C303.157 564.067 277.938 575.679 257.226 570.068C236.514 564.457 229.516 556.086 229.516 556.086L239.887 540.004C236.987 533.314 223.936 506.43 219.838 487.558Z" fill="#043B64"/>
<path opacity="0.7" d="M219.838 487.558L284.779 477.567C286.103 477.297 288.246 476.787 291.084 476.097C291.084 476.097 293.858 514.861 310.534 523.742C310.124 525.603 309.778 527.673 309.462 530.043C308.485 537.484 303.157 564.067 303.157 564.067C303.157 564.067 277.938 575.679 257.226 570.068C236.514 564.457 229.516 556.086 229.516 556.086L239.887 540.004C236.987 533.314 223.936 506.43 219.838 487.558Z" fill="white"/>
<path d="M236.956 533.614C245.58 538.542 254.616 542.787 263.973 546.305C255.481 546.144 247.167 543.957 239.793 539.944L236.956 533.614Z" fill="#043B64"/>
<path d="M289.256 399.467C289.256 399.467 292.408 418.97 284.968 430.431C284.968 430.431 282.194 422.66 275.29 424.13C268.386 425.601 268.008 434.272 272.863 439.132C274.097 440.496 275.71 441.5 277.516 442.031C279.323 442.562 281.25 442.597 283.077 442.133C283.077 442.133 284.18 456.234 284.779 468.056C285.378 479.877 288.657 505.65 274.691 516.061C260.726 526.473 225.67 530.133 209.246 508.291C200.104 496.139 212.241 474.656 217.884 450.564C223.085 428.421 226.017 395.597 250.701 390.316C275.385 385.036 289.256 399.467 289.256 399.467Z" fill="#37474F"/>
</g>
<defs>
<filter id="filter0_d_861_128" x="178" y="832.809" width="150.888" height="76.7079" filterUnits="userSpaceOnUse" color-interpolation-filters="sRGB">
<feFlood flood-opacity="0" result="BackgroundImageFix"/>
<feColorMatrix in="SourceAlpha" type="matrix" values="0 0 0 0 0 0 0 0 0 0 0 0 0 0 0 0 0 0 127 0" result="hardAlpha"/>
<feOffset dy="8"/>
<feGaussianBlur stdDeviation="1.5"/>
<feComposite in2="hardAlpha" operator="out"/>
<feColorMatrix type="matrix" values="0 0 0 0 0 0 0 0 0 0 0 0 0 0 0 0 0 0 0.25 0"/>
<feBlend mode="normal" in2="BackgroundImageFix" result="effect1_dropShadow_861_128"/>
<feBlend mode="normal" in="SourceGraphic" in2="effect1_dropShadow_861_128" result="shape"/>
</filter>
<filter id="filter1_d_861_128" x="400.753" y="62" width="358.247" height="818.189" filterUnits="userSpaceOnUse" color-interpolation-filters="sRGB">
<feFlood flood-opacity="0" result="BackgroundImageFix"/>
<feColorMatrix in="SourceAlpha" type="matrix" values="0 0 0 0 0 0 0 0 0 0 0 0 0 0 0 0 0 0 127 0" result="hardAlpha"/>
<feOffset dy="8"/>
<feGaussianBlur stdDeviation="1.5"/>
<feComposite in2="hardAlpha" operator="out"/>
<feColorMatrix type="matrix" values="0 0 0 0 0 0 0 0 0 0 0 0 0 0 0 0 0 0 0.25 0"/>
<feBlend mode="normal" in2="BackgroundImageFix" result="effect1_dropShadow_861_128"/>
<feBlend mode="normal" in="SourceGraphic" in2="effect1_dropShadow_861_128" result="shape"/>
</filter>
<filter id="filter2_d_861_128" x="187.81" y="381.07" width="272.436" height="509.414" filterUnits="userSpaceOnUse" color-interpolation-filters="sRGB">
<feFlood flood-opacity="0" result="BackgroundImageFix"/>
<feColorMatrix in="SourceAlpha" type="matrix" values="0 0 0 0 0 0 0 0 0 0 0 0 0 0 0 0 0 0 127 0" result="hardAlpha"/>
<feOffset dy="8"/>
<feGaussianBlur stdDeviation="1.5"/>
<feComposite in2="hardAlpha" operator="out"/>
<feColorMatrix type="matrix" values="0 0 0 0 0 0 0 0 0 0 0 0 0 0 0 0 0 0 0.25 0"/>
<feBlend mode="normal" in2="BackgroundImageFix" result="effect1_dropShadow_861_128"/>
<feBlend mode="normal" in="SourceGraphic" in2="effect1_dropShadow_861_128" result="shape"/>
</filter>
</defs>
</svg>
