<svg width="225" height="225" viewBox="0 0 225 225" fill="none" xmlns="http://www.w3.org/2000/svg">
<rect width="225" height="225" fill="#FFECD1"/>
<rect x="27.5" y="25.5" width="45" height="175" rx="12.5" fill="#CBBDA8" stroke="#043B64" stroke-width="5"/>
<mask id="path-2-outside-1_896_107" maskUnits="userSpaceOnUse" x="40" y="88" width="160" height="50" fill="black">
<rect fill="white" x="40" y="88" width="160" height="50"/>
<path fill-rule="evenodd" clip-rule="evenodd" d="M195 103C195 97.4772 190.523 93 185 93H79.5286C77.0275 93 75 95.0275 75 97.5286V101.306C75 103.998 71.7273 105.325 69.8528 103.393V103.393C67.2183 100.679 63.5786 99 59.5584 99C55.5382 99 51.8986 100.679 49.2641 103.393C46.6295 106.108 45 109.858 45 114C45 118.142 46.6295 121.892 49.2641 124.607C51.8986 127.321 55.5382 129 59.5584 129C63.5786 129 67.2183 127.321 69.8528 124.607V124.607C71.7273 122.675 75 124.002 75 126.694V129.048C75 131.231 76.7692 133 78.9516 133H185C190.523 133 195 128.523 195 123V103Z"/>
</mask>
<path fill-rule="evenodd" clip-rule="evenodd" d="M195 103C195 97.4772 190.523 93 185 93H79.5286C77.0275 93 75 95.0275 75 97.5286V101.306C75 103.998 71.7273 105.325 69.8528 103.393V103.393C67.2183 100.679 63.5786 99 59.5584 99C55.5382 99 51.8986 100.679 49.2641 103.393C46.6295 106.108 45 109.858 45 114C45 118.142 46.6295 121.892 49.2641 124.607C51.8986 127.321 55.5382 129 59.5584 129C63.5786 129 67.2183 127.321 69.8528 124.607V124.607C71.7273 122.675 75 124.002 75 126.694V129.048C75 131.231 76.7692 133 78.9516 133H185C190.523 133 195 128.523 195 123V103Z" fill="#CBBDA8"/>
<path d="M49.2641 103.393L45.6761 99.9111L45.6761 99.9111L49.2641 103.393ZM49.2641 124.607L45.6761 128.089L45.6761 128.089L49.2641 124.607ZM79.5286 98H185V88H79.5286V98ZM80 101.306V97.5286H70V101.306H80ZM59.5584 104C62.1494 104 64.5167 105.075 66.2649 106.876L73.4408 99.9111C69.9198 96.2833 65.0079 94 59.5584 94V104ZM52.852 106.876C54.6002 105.075 56.9675 104 59.5584 104V94C54.109 94 49.1971 96.2833 45.6761 99.9111L52.852 106.876ZM50 114C50 111.189 51.1013 108.68 52.852 106.876L45.6761 99.9111C42.1577 103.536 40 108.527 40 114H50ZM52.852 121.124C51.1013 119.32 50 116.811 50 114H40C40 119.473 42.1577 124.464 45.6761 128.089L52.852 121.124ZM59.5584 124C56.9675 124 54.6002 122.925 52.852 121.124L45.6761 128.089C49.1971 131.717 54.109 134 59.5584 134V124ZM66.2649 121.124C64.5167 122.925 62.1494 124 59.5584 124V134C65.0079 134 69.9198 131.717 73.4408 128.089L66.2649 121.124ZM80 129.048V126.694H70V129.048H80ZM185 128H78.9516V138H185V128ZM190 103V123H200V103H190ZM70 101.306C70 99.5071 72.1877 98.62 73.4408 99.9111L66.2649 106.876C71.2669 112.03 80 108.488 80 101.306H70ZM79.5286 88C74.2661 88 70 92.2661 70 97.5286H80C80 97.7889 79.7889 98 79.5286 98V88ZM70 129.048C70 133.992 74.0077 138 78.9516 138V128C79.5306 128 80 128.469 80 129.048H70ZM185 138C193.284 138 200 131.284 200 123H190C190 125.761 187.761 128 185 128V138ZM185 98C187.761 98 190 100.239 190 103H200C200 94.7157 193.284 88 185 88V98ZM73.4408 128.089C72.1877 129.38 70 128.493 70 126.694H80C80 119.512 71.267 115.97 66.2649 121.124L73.4408 128.089Z" fill="#043B64" mask="url(#path-2-outside-1_896_107)"/>
<circle cx="169" cy="110" r="6" fill="#043B64"/>
<rect x="168" y="114" width="2" height="19" fill="#043B64"/>
<circle cx="101" cy="110" r="6" fill="#043B64"/>
<rect x="100" y="114" width="2" height="19" fill="#043B64"/>
<path d="M142.361 120.25C141.615 121.542 140.542 122.615 139.25 123.361C137.958 124.107 136.492 124.5 135 124.5C133.508 124.5 132.042 124.107 130.75 123.361C129.458 122.615 128.385 121.542 127.639 120.25" stroke="#043B64" stroke-width="3" stroke-linecap="round" stroke-linejoin="round"/>
<mask id="path-9-outside-2_896_107" maskUnits="userSpaceOnUse" x="70" y="23" width="130" height="80" fill="black">
<rect fill="white" x="70" y="23" width="130" height="80"/>
<path fill-rule="evenodd" clip-rule="evenodd" d="M195 38C195 32.4772 190.523 28 185 28H85C79.4772 28 75 32.4772 75 38V58C75 63.5228 79.4771 68 85 68H160.306C162.998 68 164.325 71.2727 162.393 73.1472V73.1472C159.679 75.7817 158 79.4214 158 83.4416C158 87.4618 159.679 91.1014 162.393 93.7359C165.108 96.3705 168.858 98 173 98C177.142 98 180.892 96.3705 183.607 93.7359C186.321 91.1014 188 87.4618 188 83.4416C188 79.4214 186.321 75.7817 183.607 73.1472V73.1472C181.675 71.2727 183.002 68 185.694 68H190.183C192.843 68 195 65.8433 195 63.1829V38Z"/>
</mask>
<path fill-rule="evenodd" clip-rule="evenodd" d="M195 38C195 32.4772 190.523 28 185 28H85C79.4772 28 75 32.4772 75 38V58C75 63.5228 79.4771 68 85 68H160.306C162.998 68 164.325 71.2727 162.393 73.1472V73.1472C159.679 75.7817 158 79.4214 158 83.4416C158 87.4618 159.679 91.1014 162.393 93.7359C165.108 96.3705 168.858 98 173 98C177.142 98 180.892 96.3705 183.607 93.7359C186.321 91.1014 188 87.4618 188 83.4416C188 79.4214 186.321 75.7817 183.607 73.1472V73.1472C181.675 71.2727 183.002 68 185.694 68H190.183C192.843 68 195 65.8433 195 63.1829V38Z" fill="#CBBDA8"/>
<path d="M162.393 93.7359L158.911 97.3239L158.911 97.3239L162.393 93.7359ZM183.607 93.7359L187.089 97.3239L187.089 97.3239L183.607 93.7359ZM85 33H185V23H85V33ZM80 58V38H70V58H80ZM160.306 63H85V73H160.306V63ZM163 83.4416C163 80.8506 164.075 78.4833 165.876 76.7351L158.911 69.5592C155.283 73.0802 153 77.9921 153 83.4416H163ZM165.876 90.148C164.075 88.3998 163 86.0325 163 83.4416H153C153 88.891 155.283 93.8029 158.911 97.3239L165.876 90.148ZM173 93C170.189 93 167.68 91.8987 165.876 90.148L158.911 97.3239C162.536 100.842 167.527 103 173 103V93ZM180.124 90.148C178.32 91.8987 175.811 93 173 93V103C178.473 103 183.464 100.842 187.089 97.3239L180.124 90.148ZM183 83.4416C183 86.0325 181.925 88.3998 180.124 90.148L187.089 97.3239C190.717 93.8029 193 88.891 193 83.4416H183ZM180.124 76.7351C181.925 78.4833 183 80.8506 183 83.4416H193C193 77.9921 190.717 73.0802 187.089 69.5592L180.124 76.7351ZM190.183 63H185.694V73H190.183V63ZM190 38V63.1829H200V38H190ZM160.306 73C158.507 73 157.62 70.8123 158.911 69.5592L165.876 76.7351C171.03 71.7331 167.488 63 160.306 63V73ZM70 58C70 66.2843 76.7157 73 85 73V63C82.2386 63 80 60.7614 80 58H70ZM85 23C76.7157 23 70 29.7157 70 38H80C80 35.2386 82.2386 33 85 33V23ZM187.089 69.5592C188.38 70.8123 187.493 73 185.694 73V63C178.512 63 174.97 71.7331 180.124 76.7351L187.089 69.5592ZM190.183 73C195.605 73 200 68.6047 200 63.1829H190C190 63.0819 190.082 63 190.183 63V73ZM185 33C187.761 33 190 35.2386 190 38H200C200 29.7157 193.284 23 185 23V33Z" fill="#043B64" mask="url(#path-9-outside-2_896_107)"/>
</svg>
