<svg width="225" height="225" viewBox="0 0 225 225" fill="none" xmlns="http://www.w3.org/2000/svg">
<rect x="0.5" y="0.5" width="224" height="224" stroke="black" stroke-opacity="0.3"/>
<rect x="27.5" y="24.5" width="45" height="175" rx="12.5" fill="#C4C4C4" stroke="#1B1B1B" stroke-width="5"/>
<mask id="path-4-outside-1_839_35" maskUnits="userSpaceOnUse" x="40" y="87" width="160" height="50" fill="black">
<rect fill="white" x="40" y="87" width="160" height="50"/>
<path fill-rule="evenodd" clip-rule="evenodd" d="M195 102C195 96.4772 190.523 92 185 92H79.5286C77.0275 92 75 94.0275 75 96.5286V100.306C75 102.998 71.7273 104.325 69.8528 102.393C67.2183 99.6789 63.5786 98 59.5584 98C55.5382 98 51.8986 99.6789 49.2641 102.393C46.6295 105.108 45 108.858 45 113C45 117.142 46.6295 120.892 49.2641 123.607C51.8986 126.321 55.5382 128 59.5584 128C63.5786 128 67.2183 126.321 69.8528 123.607C71.7273 121.675 75 123.002 75 125.694V128.048C75 130.231 76.7692 132 78.9516 132H185C190.523 132 195 127.523 195 122V102Z"/>
</mask>
<path fill-rule="evenodd" clip-rule="evenodd" d="M195 102C195 96.4772 190.523 92 185 92H79.5286C77.0275 92 75 94.0275 75 96.5286V100.306C75 102.998 71.7273 104.325 69.8528 102.393C67.2183 99.6789 63.5786 98 59.5584 98C55.5382 98 51.8986 99.6789 49.2641 102.393C46.6295 105.108 45 108.858 45 113C45 117.142 46.6295 120.892 49.2641 123.607C51.8986 126.321 55.5382 128 59.5584 128C63.5786 128 67.2183 126.321 69.8528 123.607C71.7273 121.675 75 123.002 75 125.694V128.048C75 130.231 76.7692 132 78.9516 132H185C190.523 132 195 127.523 195 122V102Z" fill="#C4C4C4"/>
<path d="M49.2641 102.393L45.6761 98.9111L45.6761 98.9111L49.2641 102.393ZM49.2641 123.607L45.6761 127.089L45.6761 127.089L49.2641 123.607ZM79.5286 97H185V87H79.5286V97ZM80 100.306V96.5286H70V100.306H80ZM59.5584 103C62.1494 103 64.5167 104.075 66.2649 105.876L73.4408 98.9111C69.9198 95.2833 65.0079 93 59.5584 93V103ZM52.852 105.876C54.6002 104.075 56.9675 103 59.5584 103V93C54.109 93 49.1971 95.2833 45.6761 98.9111L52.852 105.876ZM50 113C50 110.189 51.1013 107.68 52.852 105.876L45.6761 98.9111C42.1577 102.536 40 107.527 40 113H50ZM52.852 120.124C51.1013 118.32 50 115.811 50 113H40C40 118.473 42.1577 123.464 45.6761 127.089L52.852 120.124ZM59.5584 123C56.9675 123 54.6002 121.925 52.852 120.124L45.6761 127.089C49.1971 130.717 54.109 133 59.5584 133V123ZM66.2649 120.124C64.5167 121.925 62.1494 123 59.5584 123V133C65.0079 133 69.9198 130.717 73.4408 127.089L66.2649 120.124ZM80 128.048V125.694H70V128.048H80ZM185 127H78.9516V137H185V127ZM190 102V122H200V102H190ZM70 100.306C70 98.5071 72.1877 97.62 73.4408 98.9111L66.2649 105.876C71.2669 111.03 80 107.488 80 100.306H70ZM79.5286 87C74.2661 87 70 91.2661 70 96.5286H80C80 96.7889 79.7889 97 79.5286 97V87ZM70 128.048C70 132.992 74.0077 137 78.9516 137V127C79.5306 127 80 127.469 80 128.048H70ZM185 137C193.284 137 200 130.284 200 122H190C190 124.761 187.761 127 185 127V137ZM185 97C187.761 97 190 99.2386 190 102H200C200 93.7157 193.284 87 185 87V97ZM73.4408 127.089C72.1877 128.38 70 127.493 70 125.694H80C80 118.512 71.267 114.97 66.2649 120.124L73.4408 127.089Z" fill="#1B1B1B" mask="url(#path-4-outside-1_839_35)"/>
<circle cx="169" cy="109" r="6" fill="#1B1B1B"/>
<rect x="168" y="113" width="2" height="19" fill="#1B1B1B"/>
<circle cx="101" cy="109" r="6" fill="#1B1B1B"/>
<rect x="100" y="113" width="2" height="19" fill="#1B1B1B"/>
<path d="M142.361 119.25C141.615 120.542 140.542 121.615 139.25 122.361C137.958 123.107 136.492 123.5 135 123.5C133.508 123.5 132.042 123.107 130.75 122.361C129.458 121.615 128.385 120.542 127.639 119.25" stroke="#1B1B1B" stroke-width="3" stroke-linecap="round" stroke-linejoin="round"/>
<mask id="path-11-outside-2_839_35" maskUnits="userSpaceOnUse" x="70" y="22" width="130" height="80" fill="black">
<rect fill="white" x="70" y="22" width="130" height="80"/>
<path fill-rule="evenodd" clip-rule="evenodd" d="M195 37C195 31.4772 190.523 27 185 27H85C79.4772 27 75 31.4772 75 37V57C75 62.5228 79.4771 67 85 67H160.306C162.998 67 164.325 70.2727 162.393 72.1472C159.679 74.7817 158 78.4214 158 82.4416C158 86.4618 159.679 90.1014 162.393 92.7359C165.108 95.3705 168.858 97 173 97C177.142 97 180.892 95.3705 183.607 92.7359C186.321 90.1014 188 86.4618 188 82.4416C188 78.4214 186.321 74.7817 183.607 72.1472C181.675 70.2727 183.002 67 185.694 67H190.183C192.843 67 195 64.8433 195 62.1829V37Z"/>
</mask>
<path fill-rule="evenodd" clip-rule="evenodd" d="M195 37C195 31.4772 190.523 27 185 27H85C79.4772 27 75 31.4772 75 37V57C75 62.5228 79.4771 67 85 67H160.306C162.998 67 164.325 70.2727 162.393 72.1472C159.679 74.7817 158 78.4214 158 82.4416C158 86.4618 159.679 90.1014 162.393 92.7359C165.108 95.3705 168.858 97 173 97C177.142 97 180.892 95.3705 183.607 92.7359C186.321 90.1014 188 86.4618 188 82.4416C188 78.4214 186.321 74.7817 183.607 72.1472C181.675 70.2727 183.002 67 185.694 67H190.183C192.843 67 195 64.8433 195 62.1829V37Z" fill="#C4C4C4"/>
<path d="M162.393 92.7359L158.911 96.3239V96.3239L162.393 92.7359ZM183.607 92.7359L187.089 96.3239V96.3239L183.607 92.7359ZM85 32H185V22H85V32ZM80 57V37H70V57H80ZM160.306 62H85V72H160.306V62ZM163 82.4416C163 79.8506 164.075 77.4833 165.876 75.7351L158.911 68.5592C155.283 72.0802 153 76.9921 153 82.4416H163ZM165.876 89.148C164.075 87.3998 163 85.0325 163 82.4416H153C153 87.891 155.283 92.8029 158.911 96.3239L165.876 89.148ZM173 92C170.189 92 167.68 90.8987 165.876 89.148L158.911 96.3239C162.536 99.8423 167.527 102 173 102V92ZM180.124 89.148C178.32 90.8987 175.811 92 173 92V102C178.473 102 183.464 99.8423 187.089 96.3239L180.124 89.148ZM183 82.4416C183 85.0325 181.925 87.3998 180.124 89.148L187.089 96.3239C190.717 92.8029 193 87.891 193 82.4416H183ZM180.124 75.7351C181.925 77.4833 183 79.8506 183 82.4416H193C193 76.9921 190.717 72.0802 187.089 68.5592L180.124 75.7351ZM190.183 62H185.694V72H190.183V62ZM190 37V62.1829H200V37H190ZM160.306 72C158.507 72 157.62 69.8123 158.911 68.5592L165.876 75.7351C171.03 70.7331 167.488 62 160.306 62V72ZM70 57C70 65.2843 76.7157 72 85 72V62C82.2386 62 80 59.7614 80 57H70ZM85 22C76.7157 22 70 28.7157 70 37H80C80 34.2386 82.2386 32 85 32V22ZM187.089 68.5592C188.38 69.8123 187.493 72 185.694 72V62C178.512 62 174.97 70.7331 180.124 75.7351L187.089 68.5592ZM190.183 72C195.605 72 200 67.6047 200 62.1829H190C190 62.0819 190.082 62 190.183 62V72ZM185 32C187.761 32 190 34.2386 190 37H200C200 28.7157 193.284 22 185 22V32Z" fill="#1B1B1B" mask="url(#path-11-outside-2_839_35)"/>
</svg>
